<svg width="75px" height="21px" viewBox="0 0 75 21" version="1.1" xmlns="http://www.w3.org/2000/svg" xmlns:xlink="http://www.w3.org/1999/xlink">
    <defs>
        <polygon id="path-1" points="0.255996396 20.4444444 74.744354 20.4444444 74.744354 0.130844444 0.255996396 0.130844444"></polygon>
    </defs>
    <g id="Icon-Standalone" stroke="none" stroke-width="1" fill="none" fill-rule="evenodd">
        <g id="Group-11">
            <mask id="mask-2" fill="white">
                <use xlink:href="#path-1"></use>
            </mask>
            <path d="M3.90958006,6.7483883 C3.84447051,6.7483883 3.80832919,6.74650526 3.80832919,6.74650526 L3.72473515,6.74327719 L3.72473515,2.21994386 L4.85946215,2.21994386 C7.01745742,2.21994386 7.33914273,3.46140585 7.33914273,4.20144094 C7.33914273,6.62599064 4.48287514,6.7483883 3.90958006,6.7483883 L3.90958006,6.7483883 Z M74.744354,12.715745 L74.744354,0.130844444 L72.2536379,0.130844444 C71.4359062,0.130844444 71.313136,0.853394152 71.313136,1.28407251 L71.313136,3.38608421 L71.2430605,3.3995345 C69.6578086,3.69732398 68.0582104,4.29236491 66.3496366,5.21882105 L66.2194175,5.2901076 L66.2194175,0.130844444 L63.727046,0.130844444 C62.9093143,0.130844444 62.78682,0.853394152 62.78682,1.28407251 L62.78682,7.52070409 L62.7517823,7.54572164 C62.2220775,7.93524211 61.7268587,8.31642339 61.2909557,8.65187368 L61.1839112,8.73392047 C52.2923196,15.5408444 43.4338346,18.6102012 32.4603927,18.6839088 C32.3461751,18.6855228 32.2291987,18.6855228 32.1144293,18.6855228 C27.0574038,18.6857918 22.2045354,17.8664 18.0794593,16.3150433 C13.2784578,14.509476 9.65163523,11.8161895 7.30024253,8.30862222 L7.24313374,8.22334737 L7.33997039,8.18299649 C9.33077759,7.36225965 10.3410791,5.89994386 10.3410791,3.83774503 C10.3410791,2.7229848 9.88144987,0.132189474 5.625327,0.132189474 L1.19594652,0.132189474 C0.378490631,0.132189474 0.255996396,0.855277193 0.255996396,1.28514854 L0.255996396,12.7173591 L3.72473515,12.7173591 L3.72473515,8.83264561 L3.81522639,8.83506667 C3.81660583,8.83506667 3.89054379,8.83775673 4.01910756,8.83506667 L4.06131841,8.83479766 L4.0889072,8.86627135 C8.60933069,14.1479322 17.2002045,20.444552 32.459841,20.444552 C43.8769105,20.444552 53.1873,17.3329614 62.6450136,10.3568327 L62.78682,10.2527275 L62.78682,12.715745 L66.2194175,12.715745 L66.2194175,7.81687953 L66.2594212,7.79159298 C68.0921446,6.63809591 69.666637,5.99221287 71.2118852,5.76194386 L71.313136,5.74714854 L71.313136,12.715745 L74.744354,12.715745 Z" id="Fill-9" fill="#FEFEFE" mask="url(#mask-2)"></path>
        </g>
    </g>
</svg>