<?xml version="1.0" encoding="UTF-8"?>
<svg xmlns="http://www.w3.org/2000/svg" width="469.25" height="258.50" viewBox="0 0 469.25 258.50">
  <g transform="scale(0.250000)">
    <path d="M 728.00 287.00 L 726.00 288.00 L 724.00 288.00 L 722.00 288.00 L 720.00 288.00 L 718.00 288.00 L 716.00 288.00 L 714.00 289.00 L 712.00 289.00 L 710.00 290.00 L 708.00 290.00 L 706.00 291.00 L 704.00 291.00 L 702.00 291.00 L 700.00 292.00 L 698.00 292.00 L 696.00 292.00 L 694.00 292.00 L 692.00 293.00 L 690.00 294.00 L 688.00 295.00 L 686.00 295.00 L 684.00 295.00 L 682.00 296.00 L 680.00 296.00 L 678.00 297.00 L 676.00 298.00 L 674.00 299.00 L 672.00 299.00 L 670.00 300.00 L 668.00 301.00 L 666.00 302.00 L 664.00 303.00 L 662.00 303.00 L 660.00 304.00 L 658.00 305.00 L 656.00 306.00 L 654.00 307.00 L 652.00 308.00 L 650.00 309.00 L 648.00 311.00 L 646.00 312.00 L 644.00 313.00 L 642.00 314.00 L 640.00 315.00 L 638.00 317.00 L 636.00 318.00 L 634.00 319.00 L 632.00 321.00 L 630.00 323.00 L 628.00 324.00 L 626.00 326.00 L 624.00 328.00 L 622.00 329.00 L 620.00 331.00 L 618.00 333.00 L 616.00 335.00 L 614.00 337.00 L 613.00 338.00 L 611.00 340.00 L 609.00 341.00 L 608.00 343.00 L 606.00 345.00 L 604.00 347.00 L 602.00 349.00 L 600.00 351.00 L 599.00 353.00 L 597.00 355.00 L 595.00 357.00 L 594.00 359.00 L 592.00 361.00 L 591.00 363.00 L 589.00 365.00 L 588.00 367.00 L 587.00 369.00 L 585.00 371.00 L 584.00 373.00 L 583.00 375.00 L 583.00 377.00 L 581.00 379.00 L 579.00 379.00 L 577.00 379.00 L 575.00 377.00 L 575.00 375.00 L 575.00 373.00 L 575.00 371.00 L 575.00 369.00 L 576.00 367.00 L 576.00 365.00 L 576.00 363.00 L 576.00 361.00 L 576.00 359.00 L 575.00 357.00 L 575.00 355.00 L 575.00 353.00 L 575.00 351.00 L 575.00 349.00 L 575.00 347.00 L 575.00 345.00 L 575.00 343.00 L 575.00 341.00 L 575.00 339.00 L 575.00 337.00 L 575.00 335.00 L 575.00 333.00 L 575.00 331.00 L 575.00 329.00 L 575.00 327.00 L 575.00 325.00 L 575.00 323.00 L 574.00 321.00 L 574.00 319.00 L 574.00 317.00 L 574.00 315.00 L 574.00 313.00 L 574.00 311.00 L 574.00 309.00 L 574.00 307.00 L 574.00 305.00 L 574.00 303.00 L 574.00 301.00 L 574.00 299.00 L 573.00 297.00 L 571.00 297.00 L 569.00 297.00 L 567.00 297.00 L 565.00 297.00 L 563.00 297.00 L 561.00 297.00 L 559.00 297.00 L 557.00 297.00 L 555.00 297.00 L 553.00 297.00 L 551.00 297.00 L 549.00 297.00 L 547.00 297.00 L 545.00 297.00 L 543.00 297.00 L 541.00 297.00 L 539.00 297.00 L 537.00 297.00 L 535.00 297.00 L 533.00 297.00 L 531.00 297.00 L 529.00 297.00 L 527.00 297.00 L 525.00 297.00 L 523.00 297.00 L 521.00 297.00 L 519.00 297.00 L 517.00 297.00 L 515.00 297.00 L 513.00 297.00 L 511.00 297.00 L 509.00 297.00 L 507.00 297.00 L 505.00 297.00 L 503.00 297.00 L 501.00 297.00 L 499.00 297.00 L 497.00 297.00 L 495.00 297.00 L 493.00 297.00 L 491.00 297.00 L 489.00 297.00 L 487.00 297.00 L 485.00 297.00 L 483.00 297.00 L 481.00 296.00 L 479.00 296.00 L 477.00 296.00 L 475.00 296.00 L 473.00 296.00 L 471.00 296.00 L 469.00 296.00 L 467.00 296.00 L 465.00 296.00 L 463.00 296.00 L 461.00 296.00 L 459.00 296.00 L 457.00 296.00 L 455.00 296.00 L 453.00 296.00 L 451.00 296.00 L 449.00 296.00 L 447.00 296.00 L 445.00 296.00 L 443.00 296.00 L 441.00 296.00 L 439.00 296.00 L 437.00 296.00 L 435.00 296.00 L 433.00 297.00 L 431.00 297.00 L 429.00 297.00 L 427.00 297.00 L 425.00 297.00 L 423.00 296.00 L 421.00 296.00 L 419.00 297.00 L 419.00 299.00 L 419.00 301.00 L 419.00 303.00 L 419.00 305.00 L 419.00 307.00 L 419.00 309.00 L 419.00 311.00 L 419.00 313.00 L 419.00 315.00 L 419.00 317.00 L 419.00 319.00 L 419.00 321.00 L 419.00 323.00 L 419.00 325.00 L 419.00 327.00 L 419.00 329.00 L 419.00 331.00 L 419.00 333.00 L 419.00 335.00 L 419.00 337.00 L 419.00 339.00 L 419.00 341.00 L 419.00 343.00 L 419.00 345.00 L 419.00 347.00 L 419.00 349.00 L 419.00 351.00 L 419.00 353.00 L 419.00 355.00 L 419.00 357.00 L 419.00 359.00 L 419.00 361.00 L 419.00 363.00 L 419.00 365.00 L 419.00 367.00 L 419.00 369.00 L 419.00 371.00 L 419.00 373.00 L 419.00 375.00 L 419.00 377.00 L 419.00 379.00 L 419.00 381.00 L 419.00 383.00 L 419.00 385.00 L 419.00 387.00 L 419.00 389.00 L 419.00 391.00 L 419.00 393.00 L 419.00 395.00 L 419.00 397.00 L 419.00 399.00 L 419.00 401.00 L 419.00 403.00 L 419.00 405.00 L 419.00 407.00 L 419.00 409.00 L 419.00 411.00 L 419.00 413.00 L 419.00 415.00 L 419.00 417.00 L 419.00 419.00 L 419.00 421.00 L 419.00 423.00 L 419.00 425.00 L 419.00 427.00 L 419.00 429.00 L 419.00 431.00 L 419.00 433.00 L 419.00 435.00 L 419.00 437.00 L 419.00 439.00 L 419.00 441.00 L 419.00 443.00 L 419.00 445.00 L 419.00 447.00 L 419.00 449.00 L 419.00 451.00 L 419.00 453.00 L 419.00 455.00 L 419.00 457.00 L 419.00 459.00 L 419.00 461.00 L 419.00 463.00 L 419.00 465.00 L 419.00 467.00 L 419.00 469.00 L 419.00 471.00 L 419.00 473.00 L 419.00 475.00 L 419.00 477.00 L 419.00 479.00 L 419.00 481.00 L 419.00 483.00 L 419.00 485.00 L 419.00 487.00 L 419.00 489.00 L 419.00 491.00 L 419.00 493.00 L 419.00 495.00 L 419.00 497.00 L 419.00 499.00 L 419.00 501.00 L 419.00 503.00 L 419.00 505.00 L 419.00 507.00 L 419.00 509.00 L 419.00 511.00 L 419.00 513.00 L 419.00 515.00 L 419.00 517.00 L 419.00 519.00 L 419.00 521.00 L 419.00 523.00 L 419.00 525.00 L 419.00 527.00 L 419.00 529.00 L 419.00 531.00 L 419.00 533.00 L 419.00 535.00 L 419.00 537.00 L 419.00 539.00 L 419.00 541.00 L 419.00 543.00 L 419.00 545.00 L 419.00 547.00 L 419.00 549.00 L 419.00 551.00 L 419.00 553.00 L 419.00 555.00 L 419.00 557.00 L 419.00 559.00 L 419.00 561.00 L 419.00 563.00 L 419.00 565.00 L 419.00 567.00 L 419.00 569.00 L 419.00 571.00 L 419.00 573.00 L 419.00 575.00 L 419.00 577.00 L 419.00 579.00 L 419.00 581.00 L 419.00 583.00 L 419.00 585.00 L 419.00 587.00 L 419.00 589.00 L 419.00 591.00 L 419.00 593.00 L 419.00 595.00 L 419.00 597.00 L 419.00 599.00 L 419.00 601.00 L 419.00 603.00 L 419.00 605.00 L 419.00 607.00 L 419.00 609.00 L 419.00 611.00 L 419.00 613.00 L 419.00 615.00 L 419.00 617.00 L 419.00 619.00 L 419.00 621.00 L 419.00 623.00 L 419.00 625.00 L 419.00 627.00 L 419.00 629.00 L 419.00 631.00 L 419.00 633.00 L 419.00 635.00 L 419.00 637.00 L 419.00 639.00 L 419.00 641.00 L 419.00 643.00 L 419.00 645.00 L 419.00 647.00 L 419.00 649.00 L 419.00 651.00 L 419.00 653.00 L 419.00 655.00 L 419.00 657.00 L 419.00 659.00 L 419.00 661.00 L 419.00 663.00 L 419.00 665.00 L 419.00 667.00 L 419.00 669.00 L 419.00 671.00 L 419.00 673.00 L 419.00 675.00 L 419.00 677.00 L 419.00 679.00 L 419.00 681.00 L 419.00 683.00 L 419.00 685.00 L 419.00 687.00 L 419.00 689.00 L 419.00 691.00 L 419.00 693.00 L 419.00 695.00 L 419.00 697.00 L 419.00 699.00 L 419.00 701.00 L 419.00 703.00 L 419.00 705.00 L 419.00 707.00 L 419.00 709.00 L 419.00 711.00 L 419.00 713.00 L 419.00 715.00 L 419.00 717.00 L 419.00 719.00 L 419.00 721.00 L 419.00 723.00 L 419.00 725.00 L 419.00 727.00 L 419.00 729.00 L 419.00 731.00 L 419.00 733.00 L 419.00 735.00 L 419.00 737.00 L 419.00 739.00 L 419.00 741.00 L 419.00 743.00 L 419.00 745.00 L 419.00 747.00 L 419.00 749.00 L 419.00 751.00 L 419.00 753.00 L 419.00 755.00 L 419.00 757.00 L 419.00 759.00 L 419.00 761.00 L 419.00 763.00 L 419.00 765.00 L 419.00 767.00 L 419.00 769.00 L 419.00 771.00 L 419.00 773.00 L 419.00 775.00 L 419.00 777.00 L 419.00 779.00 L 419.00 781.00 L 419.00 783.00 L 419.00 785.00 L 419.00 787.00 L 419.00 789.00 L 419.00 791.00 L 419.00 793.00 L 419.00 795.00 L 419.00 797.00 L 419.00 799.00 L 419.00 801.00 L 419.00 803.00 L 419.00 805.00 L 419.00 807.00 L 419.00 809.00 L 419.00 811.00 L 419.00 813.00 L 419.00 815.00 L 419.00 817.00 L 419.00 819.00 L 419.00 821.00 L 419.00 823.00 L 419.00 825.00 L 419.00 827.00 L 419.00 829.00 L 419.00 831.00 L 419.00 833.00 L 419.00 835.00 L 419.00 837.00 L 419.00 839.00 L 419.00 841.00 L 419.00 843.00 L 419.00 845.00 L 419.00 847.00 L 419.00 849.00 L 419.00 851.00 L 419.00 853.00 L 419.00 855.00 L 419.00 857.00 L 419.00 859.00 L 419.00 861.00 L 419.00 863.00 L 419.00 865.00 L 421.00 866.00 L 423.00 866.00 L 425.00 865.00 L 427.00 865.00 L 429.00 865.00 L 431.00 865.00 L 433.00 865.00 L 435.00 865.00 L 437.00 865.00 L 439.00 865.00 L 441.00 865.00 L 443.00 865.00 L 445.00 865.00 L 447.00 865.00 L 449.00 865.00 L 451.00 865.00 L 453.00 865.00 L 455.00 865.00 L 457.00 865.00 L 459.00 865.00 L 461.00 865.00 L 463.00 865.00 L 465.00 865.00 L 467.00 865.00 L 469.00 865.00 L 471.00 865.00 L 473.00 865.00 L 475.00 865.00 L 477.00 865.00 L 479.00 865.00 L 481.00 865.00 L 483.00 865.00 L 485.00 865.00 L 487.00 865.00 L 489.00 865.00 L 491.00 865.00 L 493.00 865.00 L 495.00 865.00 L 497.00 865.00 L 499.00 865.00 L 501.00 865.00 L 503.00 865.00 L 505.00 865.00 L 507.00 865.00 L 509.00 865.00 L 511.00 865.00 L 513.00 865.00 L 515.00 865.00 L 517.00 865.00 L 519.00 865.00 L 521.00 865.00 L 523.00 865.00 L 525.00 865.00 L 527.00 865.00 L 529.00 865.00 L 531.00 865.00 L 533.00 865.00 L 535.00 865.00 L 537.00 865.00 L 539.00 865.00 L 541.00 865.00 L 543.00 865.00 L 545.00 865.00 L 547.00 865.00 L 549.00 865.00 L 551.00 865.00 L 553.00 865.00 L 555.00 865.00 L 557.00 865.00 L 559.00 865.00 L 561.00 865.00 L 563.00 865.00 L 565.00 865.00 L 567.00 865.00 L 569.00 866.00 L 571.00 866.00 L 573.00 865.00 L 574.00 864.00 L 574.00 862.00 L 574.00 860.00 L 574.00 858.00 L 574.00 856.00 L 574.00 854.00 L 574.00 852.00 L 574.00 850.00 L 574.00 848.00 L 574.00 846.00 L 574.00 844.00 L 574.00 842.00 L 574.00 840.00 L 574.00 838.00 L 574.00 836.00 L 574.00 834.00 L 574.00 832.00 L 574.00 830.00 L 574.00 828.00 L 574.00 826.00 L 574.00 824.00 L 574.00 822.00 L 574.00 820.00 L 574.00 818.00 L 574.00 816.00 L 574.00 814.00 L 574.00 812.00 L 574.00 810.00 L 574.00 808.00 L 574.00 806.00 L 574.00 804.00 L 574.00 802.00 L 574.00 800.00 L 574.00 798.00 L 574.00 796.00 L 574.00 794.00 L 574.00 792.00 L 574.00 790.00 L 574.00 788.00 L 574.00 786.00 L 574.00 784.00 L 574.00 782.00 L 574.00 780.00 L 574.00 778.00 L 574.00 776.00 L 574.00 774.00 L 574.00 772.00 L 574.00 770.00 L 574.00 768.00 L 574.00 766.00 L 574.00 764.00 L 574.00 762.00 L 574.00 760.00 L 574.00 758.00 L 574.00 756.00 L 574.00 754.00 L 574.00 752.00 L 574.00 750.00 L 574.00 748.00 L 574.00 746.00 L 574.00 744.00 L 574.00 742.00 L 574.00 740.00 L 574.00 738.00 L 574.00 736.00 L 574.00 734.00 L 574.00 732.00 L 574.00 730.00 L 574.00 728.00 L 574.00 726.00 L 574.00 724.00 L 574.00 722.00 L 574.00 720.00 L 574.00 718.00 L 574.00 716.00 L 574.00 714.00 L 574.00 712.00 L 574.00 710.00 L 574.00 708.00 L 574.00 706.00 L 574.00 704.00 L 574.00 702.00 L 574.00 700.00 L 574.00 698.00 L 574.00 696.00 L 574.00 694.00 L 574.00 692.00 L 574.00 690.00 L 574.00 688.00 L 574.00 686.00 L 574.00 684.00 L 574.00 682.00 L 574.00 680.00 L 574.00 678.00 L 574.00 676.00 L 574.00 674.00 L 574.00 672.00 L 574.00 670.00 L 574.00 668.00 L 575.00 666.00 L 575.00 664.00 L 575.00 662.00 L 575.00 660.00 L 575.00 658.00 L 575.00 656.00 L 575.00 654.00 L 575.00 652.00 L 575.00 650.00 L 575.00 648.00 L 575.00 646.00 L 575.00 644.00 L 575.00 642.00 L 575.00 640.00 L 575.00 638.00 L 575.00 636.00 L 575.00 634.00 L 575.00 632.00 L 575.00 630.00 L 575.00 628.00 L 575.00 626.00 L 575.00 624.00 L 575.00 622.00 L 575.00 620.00 L 575.00 618.00 L 575.00 616.00 L 575.00 614.00 L 575.00 612.00 L 575.00 610.00 L 575.00 608.00 L 575.00 606.00 L 575.00 604.00 L 575.00 602.00 L 575.00 600.00 L 575.00 598.00 L 575.00 596.00 L 575.00 594.00 L 575.00 592.00 L 575.00 590.00 L 575.00 588.00 L 575.00 586.00 L 575.00 584.00 L 575.00 582.00 L 575.00 580.00 L 575.00 578.00 L 575.00 576.00 L 575.00 574.00 L 576.00 572.00 L 576.00 570.00 L 576.00 568.00 L 576.00 566.00 L 576.00 564.00 L 577.00 562.00 L 577.00 560.00 L 577.00 558.00 L 577.00 556.00 L 577.00 554.00 L 578.00 552.00 L 578.00 550.00 L 578.00 548.00 L 579.00 546.00 L 579.00 544.00 L 580.00 542.00 L 581.00 540.00 L 581.00 538.00 L 581.00 536.00 L 582.00 534.00 L 583.00 532.00 L 583.00 530.00 L 584.00 528.00 L 585.00 526.00 L 586.00 524.00 L 586.00 522.00 L 587.00 520.00 L 588.00 518.00 L 589.00 516.00 L 590.00 514.00 L 591.00 512.00 L 592.00 510.00 L 593.00 508.00 L 594.00 506.00 L 595.00 504.00 L 597.00 502.00 L 598.00 500.00 L 599.00 498.00 L 601.00 496.00 L 602.00 494.00 L 604.00 492.00 L 605.00 490.00 L 607.00 488.00 L 609.00 486.00 L 610.00 484.00 L 612.00 482.00 L 614.00 480.00 L 616.00 478.00 L 618.00 477.00 L 620.00 475.00 L 622.00 473.00 L 624.00 472.00 L 626.00 470.00 L 628.00 469.00 L 630.00 468.00 L 632.00 466.00 L 634.00 465.00 L 636.00 464.00 L 638.00 462.00 L 640.00 462.00 L 642.00 461.00 L 644.00 459.00 L 646.00 458.00 L 648.00 457.00 L 650.00 457.00 L 652.00 455.00 L 654.00 454.00 L 656.00 454.00 L 658.00 453.00 L 660.00 453.00 L 662.00 452.00 L 664.00 451.00 L 666.00 450.00 L 668.00 450.00 L 670.00 449.00 L 672.00 449.00 L 674.00 448.00 L 676.00 447.00 L 678.00 447.00 L 680.00 446.00 L 682.00 446.00 L 684.00 446.00 L 686.00 445.00 L 688.00 445.00 L 690.00 445.00 L 692.00 445.00 L 694.00 444.00 L 696.00 444.00 L 698.00 444.00 L 700.00 443.00 L 702.00 443.00 L 704.00 443.00 L 706.00 443.00 L 708.00 442.00 L 710.00 442.00 L 712.00 442.00 L 714.00 442.00 L 716.00 442.00 L 718.00 442.00 L 720.00 442.00 L 722.00 442.00 L 724.00 442.00 L 726.00 442.00 L 728.00 442.00 L 730.00 442.00 L 732.00 442.00 L 734.00 442.00 L 736.00 442.00 L 738.00 443.00 L 740.00 443.00 L 742.00 443.00 L 744.00 443.00 L 746.00 443.00 L 748.00 444.00 L 750.00 444.00 L 752.00 444.00 L 754.00 445.00 L 756.00 445.00 L 758.00 445.00 L 760.00 445.00 L 762.00 445.00 L 764.00 446.00 L 766.00 446.00 L 768.00 446.00 L 770.00 447.00 L 772.00 447.00 L 774.00 448.00 L 776.00 448.00 L 778.00 449.00 L 780.00 449.00 L 782.00 449.00 L 784.00 450.00 L 786.00 451.00 L 788.00 451.00 L 789.00 450.00 L 790.00 448.00 L 790.00 446.00 L 790.00 444.00 L 790.00 442.00 L 790.00 440.00 L 790.00 438.00 L 790.00 436.00 L 790.00 434.00 L 790.00 432.00 L 790.00 430.00 L 790.00 428.00 L 790.00 426.00 L 790.00 424.00 L 790.00 422.00 L 790.00 420.00 L 790.00 418.00 L 790.00 416.00 L 790.00 414.00 L 790.00 412.00 L 790.00 410.00 L 790.00 408.00 L 790.00 406.00 L 790.00 404.00 L 790.00 402.00 L 790.00 400.00 L 790.00 398.00 L 790.00 396.00 L 790.00 394.00 L 790.00 392.00 L 790.00 390.00 L 790.00 388.00 L 790.00 386.00 L 790.00 384.00 L 790.00 382.00 L 790.00 380.00 L 790.00 378.00 L 790.00 376.00 L 790.00 374.00 L 790.00 372.00 L 790.00 370.00 L 790.00 368.00 L 790.00 366.00 L 790.00 364.00 L 790.00 362.00 L 790.00 360.00 L 790.00 358.00 L 790.00 356.00 L 790.00 354.00 L 790.00 352.00 L 790.00 350.00 L 790.00 348.00 L 790.00 346.00 L 790.00 344.00 L 790.00 342.00 L 790.00 340.00 L 790.00 338.00 L 790.00 336.00 L 790.00 334.00 L 790.00 332.00 L 790.00 330.00 L 790.00 328.00 L 790.00 326.00 L 790.00 324.00 L 790.00 322.00 L 790.00 320.00 L 790.00 318.00 L 790.00 316.00 L 790.00 314.00 L 790.00 312.00 L 790.00 310.00 L 790.00 308.00 L 790.00 306.00 L 789.00 304.00 L 789.00 302.00 L 789.00 300.00 L 789.00 298.00 L 790.00 296.00 L 790.00 294.00 L 789.00 292.00 L 787.00 291.00 L 785.00 291.00 L 783.00 290.00 L 781.00 290.00 L 779.00 289.00 L 777.00 289.00 L 775.00 289.00 L 773.00 288.00 L 771.00 288.00 L 769.00 288.00 L 767.00 288.00 L 765.00 288.00 L 763.00 288.00 L 761.00 287.00 L 759.00 287.00 L 757.00 287.00 L 755.00 287.00 L 753.00 287.00 L 751.00 287.00 L 749.00 287.00 L 747.00 287.00 L 745.00 287.00 L 743.00 287.00 L 741.00 287.00 L 739.00 287.00 L 737.00 287.00 L 735.00 287.00 L 733.00 287.00 L 731.00 287.00 L 729.00 287.00 Z M 1356.00 227.00 L 1355.00 229.00 L 1354.00 231.00 L 1353.00 233.00 L 1352.00 235.00 L 1351.00 237.00 L 1350.00 239.00 L 1348.00 241.00 L 1348.00 243.00 L 1347.00 245.00 L 1345.00 247.00 L 1344.00 249.00 L 1343.00 251.00 L 1342.00 253.00 L 1341.00 255.00 L 1340.00 257.00 L 1339.00 259.00 L 1338.00 261.00 L 1337.00 263.00 L 1336.00 265.00 L 1335.00 267.00 L 1334.00 269.00 L 1332.00 271.00 L 1332.00 273.00 L 1331.00 275.00 L 1329.00 277.00 L 1328.00 279.00 L 1327.00 281.00 L 1326.00 283.00 L 1325.00 285.00 L 1324.00 287.00 L 1323.00 289.00 L 1322.00 291.00 L 1321.00 293.00 L 1320.00 295.00 L 1319.00 297.00 L 1318.00 299.00 L 1317.00 301.00 L 1316.00 303.00 L 1315.00 305.00 L 1313.00 307.00 L 1312.00 309.00 L 1311.00 311.00 L 1310.00 313.00 L 1309.00 315.00 L 1308.00 317.00 L 1307.00 319.00 L 1306.00 321.00 L 1305.00 323.00 L 1304.00 325.00 L 1303.00 327.00 L 1302.00 329.00 L 1300.00 331.00 L 1299.00 333.00 L 1299.00 335.00 L 1297.00 337.00 L 1296.00 339.00 L 1295.00 341.00 L 1294.00 343.00 L 1293.00 345.00 L 1292.00 347.00 L 1291.00 349.00 L 1290.00 351.00 L 1288.00 353.00 L 1287.00 355.00 L 1286.00 357.00 L 1285.00 359.00 L 1284.00 361.00 L 1283.00 363.00 L 1282.00 365.00 L 1283.00 367.00 L 1283.00 369.00 L 1284.00 371.00 L 1286.00 373.00 L 1287.00 375.00 L 1288.00 377.00 L 1288.00 379.00 L 1289.00 381.00 L 1290.00 383.00 L 1291.00 385.00 L 1292.00 387.00 L 1293.00 389.00 L 1294.00 391.00 L 1295.00 393.00 L 1295.00 395.00 L 1296.00 397.00 L 1296.00 399.00 L 1297.00 401.00 L 1298.00 403.00 L 1299.00 405.00 L 1299.00 407.00 L 1299.00 409.00 L 1300.00 411.00 L 1300.00 413.00 L 1301.00 415.00 L 1302.00 417.00 L 1303.00 419.00 L 1303.00 421.00 L 1303.00 423.00 L 1304.00 425.00 L 1304.00 427.00 L 1305.00 429.00 L 1305.00 431.00 L 1306.00 433.00 L 1306.00 435.00 L 1307.00 437.00 L 1307.00 439.00 L 1307.00 441.00 L 1308.00 443.00 L 1308.00 445.00 L 1308.00 447.00 L 1308.00 449.00 L 1309.00 451.00 L 1309.00 453.00 L 1310.00 455.00 L 1310.00 457.00 L 1310.00 459.00 L 1311.00 461.00 L 1311.00 463.00 L 1311.00 465.00 L 1311.00 467.00 L 1311.00 469.00 L 1311.00 471.00 L 1312.00 473.00 L 1312.00 475.00 L 1312.00 477.00 L 1312.00 479.00 L 1312.00 481.00 L 1312.00 483.00 L 1312.00 485.00 L 1313.00 487.00 L 1313.00 489.00 L 1313.00 491.00 L 1313.00 493.00 L 1313.00 495.00 L 1313.00 497.00 L 1313.00 499.00 L 1314.00 501.00 L 1314.00 503.00 L 1314.00 505.00 L 1314.00 507.00 L 1314.00 509.00 L 1314.00 511.00 L 1314.00 513.00 L 1314.00 515.00 L 1314.00 517.00 L 1314.00 519.00 L 1314.00 521.00 L 1314.00 523.00 L 1314.00 525.00 L 1314.00 527.00 L 1314.00 529.00 L 1314.00 531.00 L 1314.00 533.00 L 1314.00 535.00 L 1314.00 537.00 L 1313.00 539.00 L 1313.00 541.00 L 1313.00 543.00 L 1313.00 545.00 L 1313.00 547.00 L 1313.00 549.00 L 1313.00 551.00 L 1312.00 553.00 L 1312.00 555.00 L 1312.00 557.00 L 1312.00 559.00 L 1312.00 561.00 L 1312.00 563.00 L 1312.00 565.00 L 1311.00 567.00 L 1311.00 569.00 L 1311.00 571.00 L 1311.00 573.00 L 1311.00 575.00 L 1311.00 577.00 L 1310.00 579.00 L 1310.00 581.00 L 1309.00 583.00 L 1309.00 585.00 L 1309.00 587.00 L 1308.00 589.00 L 1308.00 591.00 L 1308.00 593.00 L 1308.00 595.00 L 1307.00 597.00 L 1307.00 599.00 L 1307.00 601.00 L 1306.00 603.00 L 1306.00 605.00 L 1305.00 607.00 L 1305.00 609.00 L 1304.00 611.00 L 1304.00 613.00 L 1304.00 615.00 L 1303.00 617.00 L 1303.00 619.00 L 1302.00 621.00 L 1302.00 623.00 L 1301.00 625.00 L 1300.00 627.00 L 1300.00 629.00 L 1299.00 631.00 L 1299.00 633.00 L 1298.00 635.00 L 1298.00 637.00 L 1297.00 639.00 L 1296.00 641.00 L 1296.00 643.00 L 1295.00 645.00 L 1294.00 647.00 L 1293.00 649.00 L 1292.00 651.00 L 1292.00 653.00 L 1291.00 655.00 L 1290.00 657.00 L 1289.00 659.00 L 1288.00 661.00 L 1287.00 663.00 L 1286.00 665.00 L 1285.00 667.00 L 1284.00 669.00 L 1283.00 671.00 L 1282.00 673.00 L 1281.00 675.00 L 1280.00 677.00 L 1279.00 679.00 L 1277.00 681.00 L 1276.00 683.00 L 1275.00 685.00 L 1273.00 687.00 L 1271.00 689.00 L 1270.00 691.00 L 1268.00 693.00 L 1267.00 695.00 L 1265.00 697.00 L 1263.00 699.00 L 1262.00 701.00 L 1260.00 703.00 L 1258.00 705.00 L 1256.00 707.00 L 1254.00 708.00 L 1252.00 710.00 L 1250.00 712.00 L 1248.00 713.00 L 1246.00 715.00 L 1244.00 716.00 L 1242.00 718.00 L 1240.00 719.00 L 1238.00 720.00 L 1236.00 722.00 L 1234.00 723.00 L 1232.00 724.00 L 1230.00 725.00 L 1228.00 727.00 L 1226.00 727.00 L 1224.00 728.00 L 1222.00 729.00 L 1220.00 730.00 L 1218.00 731.00 L 1216.00 732.00 L 1214.00 732.00 L 1212.00 733.00 L 1210.00 734.00 L 1208.00 735.00 L 1206.00 735.00 L 1204.00 736.00 L 1202.00 736.00 L 1200.00 737.00 L 1198.00 738.00 L 1196.00 738.00 L 1194.00 739.00 L 1192.00 739.00 L 1190.00 740.00 L 1188.00 740.00 L 1186.00 740.00 L 1184.00 740.00 L 1182.00 741.00 L 1180.00 741.00 L 1178.00 741.00 L 1176.00 742.00 L 1174.00 742.00 L 1172.00 742.00 L 1170.00 742.00 L 1168.00 742.00 L 1166.00 742.00 L 1164.00 742.00 L 1162.00 742.00 L 1160.00 742.00 L 1158.00 742.00 L 1156.00 742.00 L 1154.00 742.00 L 1152.00 742.00 L 1150.00 742.00 L 1148.00 742.00 L 1146.00 741.00 L 1144.00 741.00 L 1142.00 741.00 L 1140.00 740.00 L 1138.00 740.00 L 1136.00 740.00 L 1134.00 740.00 L 1132.00 739.00 L 1130.00 739.00 L 1128.00 739.00 L 1126.00 738.00 L 1124.00 738.00 L 1122.00 737.00 L 1120.00 736.00 L 1118.00 736.00 L 1116.00 735.00 L 1114.00 735.00 L 1112.00 734.00 L 1110.00 733.00 L 1108.00 732.00 L 1106.00 731.00 L 1104.00 730.00 L 1102.00 729.00 L 1100.00 728.00 L 1098.00 727.00 L 1096.00 725.00 L 1094.00 724.00 L 1092.00 723.00 L 1090.00 723.00 L 1088.00 725.00 L 1088.00 727.00 L 1087.00 729.00 L 1086.00 731.00 L 1084.00 733.00 L 1084.00 735.00 L 1083.00 737.00 L 1082.00 739.00 L 1080.00 741.00 L 1080.00 743.00 L 1079.00 745.00 L 1078.00 747.00 L 1076.00 749.00 L 1076.00 751.00 L 1075.00 753.00 L 1073.00 755.00 L 1072.00 757.00 L 1072.00 759.00 L 1071.00 761.00 L 1069.00 763.00 L 1068.00 765.00 L 1067.00 767.00 L 1066.00 769.00 L 1065.00 771.00 L 1064.00 773.00 L 1063.00 775.00 L 1062.00 777.00 L 1061.00 779.00 L 1060.00 781.00 L 1059.00 783.00 L 1058.00 785.00 L 1056.00 787.00 L 1056.00 789.00 L 1055.00 791.00 L 1053.00 793.00 L 1052.00 795.00 L 1051.00 797.00 L 1050.00 799.00 L 1049.00 801.00 L 1048.00 803.00 L 1047.00 805.00 L 1046.00 807.00 L 1045.00 809.00 L 1044.00 811.00 L 1043.00 813.00 L 1042.00 815.00 L 1041.00 817.00 L 1040.00 819.00 L 1039.00 821.00 L 1038.00 823.00 L 1037.00 825.00 L 1036.00 827.00 L 1035.00 829.00 L 1034.00 831.00 L 1033.00 833.00 L 1032.00 835.00 L 1031.00 837.00 L 1030.00 839.00 L 1029.00 841.00 L 1028.00 843.00 L 1027.00 845.00 L 1025.00 847.00 L 1025.00 849.00 L 1027.00 851.00 L 1029.00 852.00 L 1031.00 853.00 L 1033.00 854.00 L 1035.00 854.00 L 1037.00 855.00 L 1039.00 857.00 L 1041.00 857.00 L 1043.00 858.00 L 1045.00 859.00 L 1047.00 860.00 L 1049.00 861.00 L 1051.00 861.00 L 1053.00 862.00 L 1055.00 862.00 L 1057.00 863.00 L 1059.00 864.00 L 1061.00 865.00 L 1063.00 865.00 L 1065.00 866.00 L 1067.00 866.00 L 1069.00 867.00 L 1071.00 868.00 L 1073.00 868.00 L 1075.00 869.00 L 1077.00 869.00 L 1079.00 870.00 L 1081.00 870.00 L 1083.00 870.00 L 1085.00 871.00 L 1087.00 871.00 L 1089.00 872.00 L 1091.00 872.00 L 1093.00 873.00 L 1095.00 873.00 L 1097.00 873.00 L 1099.00 874.00 L 1101.00 874.00 L 1103.00 874.00 L 1105.00 874.00 L 1107.00 875.00 L 1109.00 875.00 L 1111.00 876.00 L 1113.00 876.00 L 1115.00 876.00 L 1117.00 877.00 L 1119.00 877.00 L 1121.00 877.00 L 1123.00 877.00 L 1125.00 877.00 L 1127.00 877.00 L 1129.00 878.00 L 1131.00 878.00 L 1133.00 878.00 L 1135.00 878.00 L 1137.00 878.00 L 1139.00 878.00 L 1141.00 878.00 L 1143.00 878.00 L 1145.00 878.00 L 1147.00 878.00 L 1149.00 878.00 L 1151.00 878.00 L 1153.00 878.00 L 1155.00 879.00 L 1157.00 879.00 L 1159.00 879.00 L 1161.00 878.00 L 1163.00 878.00 L 1165.00 878.00 L 1167.00 878.00 L 1169.00 878.00 L 1171.00 878.00 L 1173.00 878.00 L 1175.00 878.00 L 1177.00 878.00 L 1179.00 878.00 L 1181.00 878.00 L 1183.00 878.00 L 1185.00 878.00 L 1187.00 877.00 L 1189.00 877.00 L 1191.00 877.00 L 1193.00 877.00 L 1195.00 877.00 L 1197.00 877.00 L 1199.00 877.00 L 1201.00 876.00 L 1203.00 876.00 L 1205.00 876.00 L 1207.00 875.00 L 1209.00 875.00 L 1211.00 874.00 L 1213.00 874.00 L 1215.00 874.00 L 1217.00 874.00 L 1219.00 873.00 L 1221.00 873.00 L 1223.00 873.00 L 1225.00 873.00 L 1227.00 872.00 L 1229.00 872.00 L 1231.00 871.00 L 1233.00 871.00 L 1235.00 870.00 L 1237.00 870.00 L 1239.00 870.00 L 1241.00 869.00 L 1243.00 869.00 L 1245.00 868.00 L 1247.00 868.00 L 1249.00 867.00 L 1251.00 866.00 L 1253.00 866.00 L 1255.00 865.00 L 1257.00 865.00 L 1259.00 864.00 L 1261.00 864.00 L 1263.00 863.00 L 1265.00 862.00 L 1267.00 861.00 L 1269.00 861.00 L 1271.00 860.00 L 1273.00 859.00 L 1275.00 858.00 L 1277.00 858.00 L 1279.00 857.00 L 1281.00 857.00 L 1283.00 856.00 L 1285.00 854.00 L 1287.00 854.00 L 1289.00 853.00 L 1291.00 853.00 L 1293.00 851.00 L 1295.00 850.00 L 1297.00 849.00 L 1299.00 849.00 L 1301.00 848.00 L 1303.00 847.00 L 1305.00 846.00 L 1307.00 845.00 L 1309.00 844.00 L 1311.00 843.00 L 1313.00 842.00 L 1315.00 841.00 L 1317.00 840.00 L 1319.00 838.00 L 1321.00 837.00 L 1323.00 836.00 L 1325.00 835.00 L 1327.00 834.00 L 1329.00 833.00 L 1331.00 831.00 L 1333.00 830.00 L 1335.00 829.00 L 1337.00 827.00 L 1339.00 826.00 L 1341.00 825.00 L 1343.00 823.00 L 1345.00 821.00 L 1347.00 820.00 L 1349.00 818.00 L 1351.00 817.00 L 1353.00 816.00 L 1355.00 814.00 L 1357.00 813.00 L 1359.00 811.00 L 1361.00 809.00 L 1363.00 807.00 L 1365.00 805.00 L 1367.00 804.00 L 1369.00 802.00 L 1371.00 800.00 L 1373.00 798.00 L 1375.00 796.00 L 1377.00 794.00 L 1379.00 792.00 L 1381.00 790.00 L 1383.00 788.00 L 1385.00 786.00 L 1387.00 784.00 L 1389.00 782.00 L 1390.00 780.00 L 1392.00 778.00 L 1394.00 776.00 L 1395.00 774.00 L 1397.00 772.00 L 1398.00 770.00 L 1400.00 768.00 L 1401.00 766.00 L 1403.00 764.00 L 1405.00 762.00 L 1406.00 760.00 L 1408.00 758.00 L 1409.00 756.00 L 1410.00 754.00 L 1412.00 752.00 L 1413.00 750.00 L 1414.00 748.00 L 1416.00 746.00 L 1417.00 744.00 L 1418.00 742.00 L 1419.00 740.00 L 1421.00 738.00 L 1422.00 736.00 L 1423.00 734.00 L 1424.00 732.00 L 1425.00 730.00 L 1426.00 728.00 L 1427.00 726.00 L 1429.00 724.00 L 1429.00 722.00 L 1430.00 720.00 L 1432.00 718.00 L 1433.00 716.00 L 1433.00 714.00 L 1434.00 712.00 L 1435.00 710.00 L 1436.00 708.00 L 1437.00 706.00 L 1438.00 704.00 L 1439.00 702.00 L 1440.00 700.00 L 1441.00 698.00 L 1441.00 696.00 L 1442.00 694.00 L 1443.00 692.00 L 1444.00 690.00 L 1445.00 688.00 L 1445.00 686.00 L 1446.00 684.00 L 1446.00 682.00 L 1447.00 680.00 L 1448.00 678.00 L 1449.00 676.00 L 1449.00 674.00 L 1450.00 672.00 L 1451.00 670.00 L 1452.00 668.00 L 1452.00 666.00 L 1453.00 664.00 L 1453.00 662.00 L 1454.00 660.00 L 1454.00 658.00 L 1455.00 656.00 L 1456.00 654.00 L 1457.00 652.00 L 1457.00 650.00 L 1458.00 648.00 L 1458.00 646.00 L 1458.00 644.00 L 1459.00 642.00 L 1460.00 640.00 L 1460.00 638.00 L 1461.00 636.00 L 1461.00 634.00 L 1462.00 632.00 L 1462.00 630.00 L 1462.00 628.00 L 1463.00 626.00 L 1463.00 624.00 L 1464.00 622.00 L 1464.00 620.00 L 1465.00 618.00 L 1465.00 616.00 L 1465.00 614.00 L 1465.00 612.00 L 1466.00 610.00 L 1466.00 608.00 L 1466.00 606.00 L 1466.00 604.00 L 1467.00 602.00 L 1467.00 600.00 L 1467.00 598.00 L 1468.00 596.00 L 1468.00 594.00 L 1468.00 592.00 L 1469.00 590.00 L 1469.00 588.00 L 1469.00 586.00 L 1469.00 584.00 L 1469.00 582.00 L 1470.00 580.00 L 1470.00 578.00 L 1470.00 576.00 L 1470.00 574.00 L 1470.00 572.00 L 1470.00 570.00 L 1471.00 568.00 L 1471.00 566.00 L 1471.00 564.00 L 1471.00 562.00 L 1471.00 560.00 L 1472.00 558.00 L 1472.00 556.00 L 1472.00 554.00 L 1472.00 552.00 L 1472.00 550.00 L 1472.00 548.00 L 1472.00 546.00 L 1473.00 544.00 L 1473.00 542.00 L 1473.00 540.00 L 1473.00 538.00 L 1473.00 536.00 L 1473.00 534.00 L 1473.00 532.00 L 1473.00 530.00 L 1473.00 528.00 L 1473.00 526.00 L 1473.00 524.00 L 1473.00 522.00 L 1473.00 520.00 L 1473.00 518.00 L 1473.00 516.00 L 1473.00 514.00 L 1473.00 512.00 L 1473.00 510.00 L 1473.00 508.00 L 1473.00 506.00 L 1473.00 504.00 L 1473.00 502.00 L 1473.00 500.00 L 1473.00 498.00 L 1472.00 496.00 L 1472.00 494.00 L 1472.00 492.00 L 1472.00 490.00 L 1472.00 488.00 L 1472.00 486.00 L 1472.00 484.00 L 1471.00 482.00 L 1471.00 480.00 L 1471.00 478.00 L 1471.00 476.00 L 1471.00 474.00 L 1470.00 472.00 L 1470.00 470.00 L 1470.00 468.00 L 1470.00 466.00 L 1470.00 464.00 L 1470.00 462.00 L 1469.00 460.00 L 1469.00 458.00 L 1469.00 456.00 L 1469.00 454.00 L 1469.00 452.00 L 1469.00 450.00 L 1468.00 448.00 L 1468.00 446.00 L 1468.00 444.00 L 1467.00 442.00 L 1467.00 440.00 L 1466.00 438.00 L 1466.00 436.00 L 1466.00 434.00 L 1466.00 432.00 L 1465.00 430.00 L 1465.00 428.00 L 1465.00 426.00 L 1465.00 424.00 L 1464.00 422.00 L 1464.00 420.00 L 1463.00 418.00 L 1463.00 416.00 L 1462.00 414.00 L 1462.00 412.00 L 1462.00 410.00 L 1461.00 408.00 L 1461.00 406.00 L 1460.00 404.00 L 1460.00 402.00 L 1459.00 400.00 L 1458.00 398.00 L 1458.00 396.00 L 1458.00 394.00 L 1457.00 392.00 L 1457.00 390.00 L 1456.00 388.00 L 1456.00 386.00 L 1455.00 384.00 L 1454.00 382.00 L 1454.00 380.00 L 1453.00 378.00 L 1453.00 376.00 L 1452.00 374.00 L 1451.00 372.00 L 1450.00 370.00 L 1450.00 368.00 L 1449.00 366.00 L 1449.00 364.00 L 1448.00 362.00 L 1447.00 360.00 L 1446.00 358.00 L 1446.00 356.00 L 1445.00 354.00 L 1444.00 352.00 L 1444.00 350.00 L 1442.00 348.00 L 1442.00 346.00 L 1441.00 344.00 L 1441.00 342.00 L 1439.00 340.00 L 1438.00 338.00 L 1438.00 336.00 L 1437.00 334.00 L 1436.00 332.00 L 1435.00 330.00 L 1434.00 328.00 L 1433.00 326.00 L 1433.00 324.00 L 1431.00 322.00 L 1430.00 320.00 L 1429.00 318.00 L 1429.00 316.00 L 1427.00 314.00 L 1426.00 312.00 L 1425.00 310.00 L 1425.00 308.00 L 1423.00 306.00 L 1422.00 304.00 L 1421.00 302.00 L 1420.00 300.00 L 1419.00 298.00 L 1417.00 296.00 L 1417.00 294.00 L 1415.00 292.00 L 1414.00 290.00 L 1413.00 288.00 L 1411.00 286.00 L 1410.00 284.00 L 1409.00 282.00 L 1407.00 280.00 L 1406.00 278.00 L 1405.00 276.00 L 1403.00 274.00 L 1401.00 272.00 L 1400.00 270.00 L 1398.00 268.00 L 1397.00 266.00 L 1395.00 264.00 L 1394.00 262.00 L 1392.00 260.00 L 1390.00 258.00 L 1389.00 256.00 L 1387.00 254.00 L 1385.00 252.00 L 1383.00 250.00 L 1381.00 248.00 L 1379.00 246.00 L 1378.00 244.00 L 1376.00 242.00 L 1374.00 240.00 L 1372.00 238.00 L 1370.00 236.00 L 1368.00 235.00 L 1366.00 233.00 L 1364.00 231.00 L 1362.00 229.00 L 1360.00 227.00 L 1358.00 227.00 Z M 1153.00 158.00 L 1151.00 159.00 L 1149.00 159.00 L 1147.00 159.00 L 1145.00 159.00 L 1143.00 159.00 L 1141.00 159.00 L 1139.00 159.00 L 1137.00 159.00 L 1135.00 159.00 L 1133.00 159.00 L 1131.00 159.00 L 1129.00 159.00 L 1127.00 160.00 L 1125.00 160.00 L 1123.00 160.00 L 1121.00 160.00 L 1119.00 160.00 L 1117.00 160.00 L 1115.00 161.00 L 1113.00 161.00 L 1111.00 161.00 L 1109.00 162.00 L 1107.00 162.00 L 1105.00 163.00 L 1103.00 163.00 L 1101.00 163.00 L 1099.00 163.00 L 1097.00 164.00 L 1095.00 164.00 L 1093.00 164.00 L 1091.00 165.00 L 1089.00 165.00 L 1087.00 166.00 L 1085.00 166.00 L 1083.00 167.00 L 1081.00 167.00 L 1079.00 168.00 L 1077.00 168.00 L 1075.00 168.00 L 1073.00 169.00 L 1071.00 170.00 L 1069.00 170.00 L 1067.00 171.00 L 1065.00 171.00 L 1063.00 172.00 L 1061.00 172.00 L 1059.00 173.00 L 1057.00 174.00 L 1055.00 175.00 L 1053.00 175.00 L 1051.00 176.00 L 1049.00 176.00 L 1047.00 177.00 L 1045.00 178.00 L 1043.00 179.00 L 1041.00 180.00 L 1039.00 180.00 L 1037.00 181.00 L 1035.00 183.00 L 1033.00 183.00 L 1031.00 184.00 L 1029.00 185.00 L 1027.00 186.00 L 1025.00 187.00 L 1023.00 188.00 L 1021.00 188.00 L 1019.00 190.00 L 1017.00 191.00 L 1015.00 192.00 L 1013.00 192.00 L 1011.00 194.00 L 1009.00 195.00 L 1007.00 196.00 L 1005.00 197.00 L 1003.00 198.00 L 1001.00 199.00 L 999.00 200.00 L 997.00 202.00 L 995.00 203.00 L 993.00 204.00 L 991.00 206.00 L 989.00 207.00 L 987.00 208.00 L 985.00 210.00 L 983.00 211.00 L 981.00 212.00 L 979.00 214.00 L 977.00 216.00 L 975.00 217.00 L 973.00 219.00 L 971.00 220.00 L 969.00 222.00 L 967.00 224.00 L 965.00 225.00 L 963.00 227.00 L 961.00 229.00 L 959.00 231.00 L 957.00 232.00 L 955.00 234.00 L 953.00 236.00 L 951.00 238.00 L 949.00 240.00 L 947.00 242.00 L 945.00 244.00 L 943.00 246.00 L 941.00 248.00 L 939.00 250.00 L 938.00 252.00 L 937.00 253.00 L 935.00 255.00 L 933.00 257.00 L 932.00 259.00 L 930.00 261.00 L 928.00 263.00 L 927.00 265.00 L 925.00 267.00 L 923.00 269.00 L 922.00 271.00 L 920.00 273.00 L 919.00 275.00 L 918.00 277.00 L 916.00 279.00 L 915.00 281.00 L 914.00 283.00 L 912.00 285.00 L 911.00 287.00 L 910.00 289.00 L 908.00 291.00 L 907.00 293.00 L 906.00 295.00 L 904.00 297.00 L 904.00 299.00 L 902.00 301.00 L 901.00 303.00 L 900.00 305.00 L 899.00 307.00 L 898.00 309.00 L 896.00 311.00 L 895.00 313.00 L 895.00 315.00 L 893.00 317.00 L 892.00 319.00 L 891.00 321.00 L 891.00 323.00 L 889.00 325.00 L 888.00 327.00 L 887.00 329.00 L 887.00 331.00 L 885.00 333.00 L 884.00 335.00 L 884.00 337.00 L 883.00 339.00 L 882.00 341.00 L 881.00 343.00 L 880.00 345.00 L 880.00 347.00 L 879.00 349.00 L 878.00 351.00 L 877.00 353.00 L 876.00 355.00 L 876.00 357.00 L 875.00 359.00 L 875.00 361.00 L 874.00 363.00 L 873.00 365.00 L 872.00 367.00 L 872.00 369.00 L 871.00 371.00 L 871.00 373.00 L 870.00 375.00 L 869.00 377.00 L 868.00 379.00 L 868.00 381.00 L 867.00 383.00 L 867.00 385.00 L 867.00 387.00 L 866.00 389.00 L 865.00 391.00 L 864.00 393.00 L 864.00 395.00 L 864.00 397.00 L 863.00 399.00 L 863.00 401.00 L 862.00 403.00 L 862.00 405.00 L 861.00 407.00 L 861.00 409.00 L 860.00 411.00 L 860.00 413.00 L 859.00 415.00 L 859.00 417.00 L 859.00 419.00 L 859.00 421.00 L 858.00 423.00 L 858.00 425.00 L 857.00 427.00 L 857.00 429.00 L 856.00 431.00 L 856.00 433.00 L 856.00 435.00 L 855.00 437.00 L 855.00 439.00 L 855.00 441.00 L 855.00 443.00 L 855.00 445.00 L 854.00 447.00 L 854.00 449.00 L 854.00 451.00 L 853.00 453.00 L 853.00 455.00 L 853.00 457.00 L 852.00 459.00 L 852.00 461.00 L 852.00 463.00 L 852.00 465.00 L 852.00 467.00 L 852.00 469.00 L 851.00 471.00 L 851.00 473.00 L 851.00 475.00 L 851.00 477.00 L 851.00 479.00 L 851.00 481.00 L 851.00 483.00 L 851.00 485.00 L 850.00 487.00 L 850.00 489.00 L 850.00 491.00 L 850.00 493.00 L 850.00 495.00 L 850.00 497.00 L 850.00 499.00 L 850.00 501.00 L 850.00 503.00 L 850.00 505.00 L 850.00 507.00 L 850.00 509.00 L 850.00 511.00 L 849.00 513.00 L 849.00 515.00 L 849.00 517.00 L 849.00 519.00 L 849.00 521.00 L 849.00 523.00 L 849.00 525.00 L 850.00 527.00 L 850.00 529.00 L 850.00 531.00 L 850.00 533.00 L 850.00 535.00 L 850.00 537.00 L 850.00 539.00 L 850.00 541.00 L 850.00 543.00 L 850.00 545.00 L 850.00 547.00 L 850.00 549.00 L 851.00 551.00 L 851.00 553.00 L 851.00 555.00 L 851.00 557.00 L 851.00 559.00 L 851.00 561.00 L 851.00 563.00 L 851.00 565.00 L 851.00 567.00 L 852.00 569.00 L 852.00 571.00 L 852.00 573.00 L 852.00 575.00 L 852.00 577.00 L 852.00 579.00 L 853.00 581.00 L 853.00 583.00 L 853.00 585.00 L 854.00 587.00 L 854.00 589.00 L 854.00 591.00 L 855.00 593.00 L 855.00 595.00 L 855.00 597.00 L 855.00 599.00 L 855.00 601.00 L 856.00 603.00 L 856.00 605.00 L 856.00 607.00 L 857.00 609.00 L 857.00 611.00 L 858.00 613.00 L 858.00 615.00 L 859.00 617.00 L 859.00 619.00 L 859.00 621.00 L 860.00 623.00 L 860.00 625.00 L 860.00 627.00 L 861.00 629.00 L 861.00 631.00 L 862.00 633.00 L 863.00 635.00 L 863.00 637.00 L 863.00 639.00 L 864.00 641.00 L 864.00 643.00 L 865.00 645.00 L 865.00 647.00 L 866.00 649.00 L 867.00 651.00 L 867.00 653.00 L 868.00 655.00 L 868.00 657.00 L 869.00 659.00 L 870.00 661.00 L 870.00 663.00 L 871.00 665.00 L 872.00 667.00 L 872.00 669.00 L 873.00 671.00 L 874.00 673.00 L 874.00 675.00 L 875.00 677.00 L 876.00 679.00 L 876.00 681.00 L 877.00 683.00 L 878.00 685.00 L 879.00 687.00 L 879.00 689.00 L 880.00 691.00 L 881.00 693.00 L 882.00 695.00 L 883.00 697.00 L 883.00 699.00 L 884.00 701.00 L 885.00 703.00 L 886.00 705.00 L 887.00 707.00 L 888.00 709.00 L 889.00 711.00 L 890.00 713.00 L 891.00 715.00 L 892.00 717.00 L 893.00 719.00 L 894.00 721.00 L 895.00 723.00 L 896.00 725.00 L 897.00 727.00 L 899.00 729.00 L 899.00 731.00 L 900.00 733.00 L 902.00 735.00 L 903.00 737.00 L 904.00 739.00 L 905.00 741.00 L 907.00 743.00 L 908.00 745.00 L 909.00 747.00 L 911.00 749.00 L 912.00 751.00 L 913.00 753.00 L 915.00 755.00 L 916.00 757.00 L 918.00 759.00 L 919.00 761.00 L 921.00 763.00 L 922.00 765.00 L 924.00 767.00 L 925.00 769.00 L 927.00 771.00 L 928.00 773.00 L 930.00 775.00 L 932.00 777.00 L 934.00 779.00 L 935.00 781.00 L 937.00 783.00 L 939.00 785.00 L 941.00 787.00 L 943.00 789.00 L 945.00 791.00 L 947.00 793.00 L 949.00 795.00 L 951.00 797.00 L 953.00 799.00 L 955.00 801.00 L 957.00 801.00 L 959.00 800.00 L 960.00 798.00 L 961.00 796.00 L 962.00 794.00 L 963.00 792.00 L 964.00 790.00 L 965.00 788.00 L 966.00 786.00 L 967.00 784.00 L 969.00 782.00 L 969.00 780.00 L 970.00 778.00 L 972.00 776.00 L 973.00 774.00 L 974.00 772.00 L 975.00 770.00 L 976.00 768.00 L 977.00 766.00 L 978.00 764.00 L 979.00 762.00 L 981.00 760.00 L 981.00 758.00 L 982.00 756.00 L 984.00 754.00 L 985.00 752.00 L 986.00 750.00 L 987.00 748.00 L 988.00 746.00 L 989.00 744.00 L 990.00 742.00 L 991.00 740.00 L 993.00 738.00 L 994.00 736.00 L 994.00 734.00 L 996.00 732.00 L 997.00 730.00 L 998.00 728.00 L 999.00 726.00 L 1000.00 724.00 L 1001.00 722.00 L 1002.00 720.00 L 1003.00 718.00 L 1004.00 716.00 L 1005.00 714.00 L 1006.00 712.00 L 1007.00 710.00 L 1008.00 708.00 L 1009.00 706.00 L 1010.00 704.00 L 1011.00 702.00 L 1013.00 700.00 L 1013.00 698.00 L 1014.00 696.00 L 1016.00 694.00 L 1017.00 692.00 L 1018.00 690.00 L 1019.00 688.00 L 1020.00 686.00 L 1021.00 684.00 L 1022.00 682.00 L 1024.00 680.00 L 1025.00 678.00 L 1026.00 676.00 L 1027.00 674.00 L 1028.00 672.00 L 1029.00 670.00 L 1030.00 668.00 L 1031.00 666.00 L 1032.00 664.00 L 1033.00 662.00 L 1034.00 660.00 L 1034.00 658.00 L 1034.00 656.00 L 1033.00 654.00 L 1032.00 652.00 L 1031.00 650.00 L 1030.00 648.00 L 1029.00 646.00 L 1029.00 644.00 L 1028.00 642.00 L 1027.00 640.00 L 1026.00 638.00 L 1026.00 636.00 L 1025.00 634.00 L 1025.00 632.00 L 1024.00 630.00 L 1024.00 628.00 L 1023.00 626.00 L 1022.00 624.00 L 1022.00 622.00 L 1021.00 620.00 L 1021.00 618.00 L 1021.00 616.00 L 1020.00 614.00 L 1020.00 612.00 L 1019.00 610.00 L 1019.00 608.00 L 1018.00 606.00 L 1018.00 604.00 L 1018.00 602.00 L 1017.00 600.00 L 1017.00 598.00 L 1017.00 596.00 L 1017.00 594.00 L 1016.00 592.00 L 1016.00 590.00 L 1015.00 588.00 L 1015.00 586.00 L 1015.00 584.00 L 1014.00 582.00 L 1014.00 580.00 L 1014.00 578.00 L 1014.00 576.00 L 1014.00 574.00 L 1013.00 572.00 L 1013.00 570.00 L 1013.00 568.00 L 1013.00 566.00 L 1013.00 564.00 L 1013.00 562.00 L 1012.00 560.00 L 1012.00 558.00 L 1012.00 556.00 L 1012.00 554.00 L 1012.00 552.00 L 1012.00 550.00 L 1011.00 548.00 L 1011.00 546.00 L 1011.00 544.00 L 1011.00 542.00 L 1011.00 540.00 L 1011.00 538.00 L 1011.00 536.00 L 1011.00 534.00 L 1011.00 532.00 L 1010.00 530.00 L 1010.00 528.00 L 1010.00 526.00 L 1010.00 524.00 L 1010.00 522.00 L 1010.00 520.00 L 1010.00 518.00 L 1010.00 516.00 L 1010.00 514.00 L 1010.00 512.00 L 1010.00 510.00 L 1010.00 508.00 L 1010.00 506.00 L 1010.00 504.00 L 1010.00 502.00 L 1011.00 500.00 L 1011.00 498.00 L 1011.00 496.00 L 1011.00 494.00 L 1011.00 492.00 L 1011.00 490.00 L 1011.00 488.00 L 1011.00 486.00 L 1012.00 484.00 L 1012.00 482.00 L 1012.00 480.00 L 1012.00 478.00 L 1012.00 476.00 L 1012.00 474.00 L 1013.00 472.00 L 1013.00 470.00 L 1013.00 468.00 L 1013.00 466.00 L 1013.00 464.00 L 1014.00 462.00 L 1014.00 460.00 L 1014.00 458.00 L 1014.00 456.00 L 1014.00 454.00 L 1014.00 452.00 L 1015.00 450.00 L 1015.00 448.00 L 1016.00 446.00 L 1016.00 444.00 L 1016.00 442.00 L 1017.00 440.00 L 1017.00 438.00 L 1017.00 436.00 L 1018.00 434.00 L 1018.00 432.00 L 1018.00 430.00 L 1018.00 428.00 L 1019.00 426.00 L 1020.00 424.00 L 1020.00 422.00 L 1021.00 420.00 L 1021.00 418.00 L 1022.00 416.00 L 1022.00 414.00 L 1022.00 412.00 L 1023.00 410.00 L 1024.00 408.00 L 1025.00 406.00 L 1025.00 404.00 L 1025.00 402.00 L 1026.00 400.00 L 1027.00 398.00 L 1028.00 396.00 L 1029.00 394.00 L 1029.00 392.00 L 1030.00 390.00 L 1030.00 388.00 L 1031.00 386.00 L 1033.00 384.00 L 1033.00 382.00 L 1034.00 380.00 L 1035.00 378.00 L 1036.00 376.00 L 1037.00 374.00 L 1038.00 372.00 L 1039.00 370.00 L 1040.00 368.00 L 1041.00 366.00 L 1042.00 364.00 L 1044.00 362.00 L 1045.00 360.00 L 1046.00 358.00 L 1047.00 356.00 L 1049.00 354.00 L 1050.00 352.00 L 1051.00 350.00 L 1053.00 348.00 L 1054.00 346.00 L 1056.00 344.00 L 1057.00 342.00 L 1059.00 340.00 L 1061.00 338.00 L 1062.00 336.00 L 1064.00 334.00 L 1066.00 332.00 L 1068.00 330.00 L 1070.00 328.00 L 1072.00 326.00 L 1074.00 325.00 L 1076.00 323.00 L 1078.00 321.00 L 1080.00 320.00 L 1082.00 318.00 L 1084.00 317.00 L 1086.00 315.00 L 1088.00 314.00 L 1090.00 313.00 L 1092.00 311.00 L 1094.00 310.00 L 1096.00 309.00 L 1098.00 308.00 L 1100.00 307.00 L 1102.00 306.00 L 1104.00 305.00 L 1106.00 305.00 L 1108.00 304.00 L 1110.00 302.00 L 1112.00 302.00 L 1114.00 301.00 L 1116.00 301.00 L 1118.00 300.00 L 1120.00 299.00 L 1122.00 298.00 L 1124.00 298.00 L 1126.00 298.00 L 1128.00 297.00 L 1130.00 297.00 L 1132.00 297.00 L 1134.00 296.00 L 1136.00 296.00 L 1138.00 295.00 L 1140.00 295.00 L 1142.00 294.00 L 1144.00 294.00 L 1146.00 294.00 L 1148.00 294.00 L 1150.00 294.00 L 1152.00 294.00 L 1154.00 294.00 L 1156.00 294.00 L 1158.00 294.00 L 1160.00 294.00 L 1162.00 294.00 L 1164.00 294.00 L 1166.00 294.00 L 1168.00 294.00 L 1170.00 294.00 L 1172.00 294.00 L 1174.00 294.00 L 1176.00 294.00 L 1178.00 294.00 L 1180.00 295.00 L 1182.00 295.00 L 1184.00 295.00 L 1186.00 296.00 L 1188.00 296.00 L 1190.00 297.00 L 1192.00 297.00 L 1194.00 297.00 L 1196.00 298.00 L 1198.00 298.00 L 1200.00 299.00 L 1202.00 300.00 L 1204.00 301.00 L 1206.00 301.00 L 1208.00 302.00 L 1210.00 302.00 L 1212.00 303.00 L 1214.00 304.00 L 1216.00 305.00 L 1218.00 306.00 L 1220.00 307.00 L 1222.00 307.00 L 1224.00 305.00 L 1225.00 303.00 L 1226.00 301.00 L 1227.00 299.00 L 1228.00 297.00 L 1229.00 295.00 L 1230.00 293.00 L 1231.00 291.00 L 1232.00 289.00 L 1233.00 287.00 L 1234.00 285.00 L 1236.00 283.00 L 1237.00 281.00 L 1238.00 279.00 L 1239.00 277.00 L 1240.00 275.00 L 1241.00 273.00 L 1242.00 271.00 L 1243.00 269.00 L 1245.00 267.00 L 1245.00 265.00 L 1246.00 263.00 L 1247.00 261.00 L 1249.00 259.00 L 1249.00 257.00 L 1250.00 255.00 L 1251.00 253.00 L 1253.00 251.00 L 1253.00 249.00 L 1254.00 247.00 L 1256.00 245.00 L 1257.00 243.00 L 1258.00 241.00 L 1259.00 239.00 L 1260.00 237.00 L 1261.00 235.00 L 1262.00 233.00 L 1263.00 231.00 L 1265.00 229.00 L 1266.00 227.00 L 1266.00 225.00 L 1268.00 223.00 L 1269.00 221.00 L 1270.00 219.00 L 1271.00 217.00 L 1272.00 215.00 L 1273.00 213.00 L 1274.00 211.00 L 1275.00 209.00 L 1277.00 207.00 L 1278.00 205.00 L 1279.00 203.00 L 1280.00 201.00 L 1281.00 199.00 L 1282.00 197.00 L 1283.00 195.00 L 1284.00 193.00 L 1285.00 191.00 L 1286.00 189.00 L 1287.00 187.00 L 1288.00 185.00 L 1288.00 183.00 L 1286.00 181.00 L 1284.00 180.00 L 1282.00 180.00 L 1280.00 179.00 L 1278.00 178.00 L 1276.00 177.00 L 1274.00 176.00 L 1272.00 176.00 L 1270.00 175.00 L 1268.00 175.00 L 1266.00 174.00 L 1264.00 173.00 L 1262.00 172.00 L 1260.00 172.00 L 1258.00 171.00 L 1256.00 171.00 L 1254.00 170.00 L 1252.00 169.00 L 1250.00 169.00 L 1248.00 168.00 L 1246.00 168.00 L 1244.00 167.00 L 1242.00 167.00 L 1240.00 167.00 L 1238.00 166.00 L 1236.00 166.00 L 1234.00 165.00 L 1232.00 164.00 L 1230.00 164.00 L 1228.00 164.00 L 1226.00 164.00 L 1224.00 163.00 L 1222.00 163.00 L 1220.00 163.00 L 1218.00 162.00 L 1216.00 162.00 L 1214.00 162.00 L 1212.00 161.00 L 1210.00 161.00 L 1208.00 160.00 L 1206.00 160.00 L 1204.00 160.00 L 1202.00 160.00 L 1200.00 160.00 L 1198.00 160.00 L 1196.00 159.00 L 1194.00 159.00 L 1192.00 159.00 L 1190.00 159.00 L 1188.00 159.00 L 1186.00 159.00 L 1184.00 159.00 L 1182.00 159.00 L 1180.00 159.00 L 1178.00 159.00 L 1176.00 159.00 L 1174.00 159.00 L 1172.00 158.00 L 1170.00 158.00 L 1168.00 158.00 L 1166.00 158.00 L 1164.00 158.00 L 1162.00 158.00 L 1160.00 158.00 L 1158.00 158.00 L 1156.00 158.00 L 1154.00 158.00 Z M 1635.00 154.00 L 1635.00 156.00 L 1636.00 158.00 L 1637.00 160.00 L 1638.00 162.00 L 1640.00 164.00 L 1641.00 166.00 L 1643.00 168.00 L 1644.00 170.00 L 1645.00 172.00 L 1647.00 174.00 L 1648.00 176.00 L 1649.00 178.00 L 1651.00 180.00 L 1652.00 182.00 L 1653.00 184.00 L 1655.00 186.00 L 1656.00 188.00 L 1657.00 190.00 L 1659.00 192.00 L 1660.00 194.00 L 1661.00 196.00 L 1662.00 198.00 L 1663.00 200.00 L 1664.00 202.00 L 1666.00 204.00 L 1667.00 206.00 L 1668.00 208.00 L 1669.00 210.00 L 1670.00 212.00 L 1671.00 214.00 L 1672.00 216.00 L 1673.00 218.00 L 1675.00 220.00 L 1676.00 222.00 L 1676.00 224.00 L 1678.00 226.00 L 1679.00 228.00 L 1680.00 230.00 L 1681.00 232.00 L 1682.00 234.00 L 1683.00 236.00 L 1684.00 238.00 L 1685.00 240.00 L 1686.00 242.00 L 1687.00 244.00 L 1688.00 246.00 L 1689.00 248.00 L 1690.00 250.00 L 1691.00 252.00 L 1692.00 254.00 L 1693.00 256.00 L 1694.00 258.00 L 1695.00 260.00 L 1696.00 262.00 L 1696.00 264.00 L 1697.00 266.00 L 1698.00 268.00 L 1699.00 270.00 L 1700.00 272.00 L 1701.00 274.00 L 1702.00 276.00 L 1703.00 278.00 L 1703.00 280.00 L 1704.00 282.00 L 1705.00 284.00 L 1706.00 286.00 L 1707.00 288.00 L 1707.00 290.00 L 1708.00 292.00 L 1709.00 294.00 L 1709.00 296.00 L 1711.00 298.00 L 1711.00 300.00 L 1712.00 302.00 L 1712.00 304.00 L 1713.00 306.00 L 1714.00 308.00 L 1715.00 310.00 L 1715.00 312.00 L 1716.00 314.00 L 1716.00 316.00 L 1717.00 318.00 L 1718.00 320.00 L 1719.00 322.00 L 1719.00 324.00 L 1720.00 326.00 L 1720.00 328.00 L 1721.00 330.00 L 1722.00 332.00 L 1723.00 334.00 L 1723.00 336.00 L 1724.00 338.00 L 1724.00 340.00 L 1725.00 342.00 L 1725.00 344.00 L 1726.00 346.00 L 1727.00 348.00 L 1727.00 350.00 L 1728.00 352.00 L 1728.00 354.00 L 1728.00 356.00 L 1729.00 358.00 L 1730.00 360.00 L 1730.00 362.00 L 1731.00 364.00 L 1731.00 366.00 L 1732.00 368.00 L 1732.00 370.00 L 1732.00 372.00 L 1733.00 374.00 L 1734.00 376.00 L 1734.00 378.00 L 1735.00 380.00 L 1735.00 382.00 L 1735.00 384.00 L 1736.00 386.00 L 1736.00 388.00 L 1736.00 390.00 L 1737.00 392.00 L 1737.00 394.00 L 1738.00 396.00 L 1738.00 398.00 L 1739.00 400.00 L 1739.00 402.00 L 1739.00 404.00 L 1740.00 406.00 L 1740.00 408.00 L 1740.00 410.00 L 1740.00 412.00 L 1741.00 414.00 L 1741.00 416.00 L 1742.00 418.00 L 1742.00 420.00 L 1743.00 422.00 L 1743.00 424.00 L 1743.00 426.00 L 1743.00 428.00 L 1744.00 430.00 L 1744.00 432.00 L 1744.00 434.00 L 1744.00 436.00 L 1744.00 438.00 L 1745.00 440.00 L 1745.00 442.00 L 1745.00 444.00 L 1746.00 446.00 L 1746.00 448.00 L 1746.00 450.00 L 1747.00 452.00 L 1747.00 454.00 L 1747.00 456.00 L 1747.00 458.00 L 1747.00 460.00 L 1748.00 462.00 L 1748.00 464.00 L 1748.00 466.00 L 1748.00 468.00 L 1748.00 470.00 L 1748.00 472.00 L 1748.00 474.00 L 1749.00 476.00 L 1749.00 478.00 L 1749.00 480.00 L 1749.00 482.00 L 1749.00 484.00 L 1749.00 486.00 L 1749.00 488.00 L 1750.00 490.00 L 1750.00 492.00 L 1750.00 494.00 L 1750.00 496.00 L 1750.00 498.00 L 1750.00 500.00 L 1750.00 502.00 L 1751.00 504.00 L 1751.00 506.00 L 1751.00 508.00 L 1751.00 510.00 L 1751.00 512.00 L 1751.00 514.00 L 1751.00 516.00 L 1751.00 518.00 L 1751.00 520.00 L 1751.00 522.00 L 1751.00 524.00 L 1751.00 526.00 L 1751.00 528.00 L 1751.00 530.00 L 1751.00 532.00 L 1751.00 534.00 L 1751.00 536.00 L 1751.00 538.00 L 1751.00 540.00 L 1751.00 542.00 L 1751.00 544.00 L 1751.00 546.00 L 1751.00 548.00 L 1751.00 550.00 L 1751.00 552.00 L 1751.00 554.00 L 1751.00 556.00 L 1750.00 558.00 L 1750.00 560.00 L 1750.00 562.00 L 1750.00 564.00 L 1750.00 566.00 L 1750.00 568.00 L 1750.00 570.00 L 1749.00 572.00 L 1749.00 574.00 L 1749.00 576.00 L 1749.00 578.00 L 1749.00 580.00 L 1749.00 582.00 L 1748.00 584.00 L 1748.00 586.00 L 1748.00 588.00 L 1748.00 590.00 L 1748.00 592.00 L 1748.00 594.00 L 1748.00 596.00 L 1748.00 598.00 L 1747.00 600.00 L 1747.00 602.00 L 1747.00 604.00 L 1747.00 606.00 L 1747.00 608.00 L 1746.00 610.00 L 1746.00 612.00 L 1746.00 614.00 L 1745.00 616.00 L 1745.00 618.00 L 1745.00 620.00 L 1745.00 622.00 L 1744.00 624.00 L 1744.00 626.00 L 1744.00 628.00 L 1744.00 630.00 L 1744.00 632.00 L 1743.00 634.00 L 1743.00 636.00 L 1743.00 638.00 L 1743.00 640.00 L 1742.00 642.00 L 1742.00 644.00 L 1741.00 646.00 L 1741.00 648.00 L 1740.00 650.00 L 1740.00 652.00 L 1740.00 654.00 L 1739.00 656.00 L 1739.00 658.00 L 1739.00 660.00 L 1738.00 662.00 L 1738.00 664.00 L 1737.00 666.00 L 1737.00 668.00 L 1736.00 670.00 L 1736.00 672.00 L 1736.00 674.00 L 1735.00 676.00 L 1735.00 678.00 L 1735.00 680.00 L 1734.00 682.00 L 1733.00 684.00 L 1733.00 686.00 L 1732.00 688.00 L 1732.00 690.00 L 1732.00 692.00 L 1731.00 694.00 L 1731.00 696.00 L 1730.00 698.00 L 1729.00 700.00 L 1729.00 702.00 L 1728.00 704.00 L 1728.00 706.00 L 1727.00 708.00 L 1727.00 710.00 L 1726.00 712.00 L 1725.00 714.00 L 1725.00 716.00 L 1724.00 718.00 L 1724.00 720.00 L 1723.00 722.00 L 1723.00 724.00 L 1722.00 726.00 L 1721.00 728.00 L 1720.00 730.00 L 1720.00 732.00 L 1719.00 734.00 L 1719.00 736.00 L 1718.00 738.00 L 1717.00 740.00 L 1716.00 742.00 L 1716.00 744.00 L 1715.00 746.00 L 1715.00 748.00 L 1714.00 750.00 L 1713.00 752.00 L 1712.00 754.00 L 1712.00 756.00 L 1711.00 758.00 L 1710.00 760.00 L 1709.00 762.00 L 1708.00 764.00 L 1708.00 766.00 L 1707.00 768.00 L 1706.00 770.00 L 1705.00 772.00 L 1704.00 774.00 L 1704.00 776.00 L 1703.00 778.00 L 1702.00 780.00 L 1701.00 782.00 L 1700.00 784.00 L 1700.00 786.00 L 1699.00 788.00 L 1698.00 790.00 L 1697.00 792.00 L 1696.00 794.00 L 1695.00 796.00 L 1694.00 798.00 L 1693.00 800.00 L 1692.00 802.00 L 1691.00 804.00 L 1690.00 806.00 L 1689.00 808.00 L 1688.00 810.00 L 1687.00 812.00 L 1686.00 814.00 L 1685.00 816.00 L 1684.00 818.00 L 1683.00 820.00 L 1682.00 822.00 L 1681.00 824.00 L 1680.00 826.00 L 1679.00 828.00 L 1678.00 830.00 L 1676.00 832.00 L 1676.00 834.00 L 1675.00 836.00 L 1673.00 838.00 L 1672.00 840.00 L 1671.00 842.00 L 1670.00 844.00 L 1669.00 846.00 L 1668.00 848.00 L 1667.00 850.00 L 1665.00 852.00 L 1664.00 854.00 L 1663.00 856.00 L 1662.00 858.00 L 1661.00 860.00 L 1660.00 862.00 L 1658.00 864.00 L 1657.00 866.00 L 1656.00 868.00 L 1655.00 870.00 L 1653.00 872.00 L 1652.00 874.00 L 1651.00 876.00 L 1649.00 878.00 L 1648.00 880.00 L 1647.00 882.00 L 1645.00 884.00 L 1644.00 886.00 L 1643.00 888.00 L 1641.00 890.00 L 1640.00 892.00 L 1638.00 894.00 L 1636.00 896.00 L 1635.00 898.00 L 1635.00 900.00 L 1637.00 901.00 L 1639.00 901.00 L 1641.00 901.00 L 1643.00 900.00 L 1645.00 900.00 L 1647.00 900.00 L 1649.00 900.00 L 1651.00 900.00 L 1653.00 900.00 L 1655.00 900.00 L 1657.00 900.00 L 1659.00 900.00 L 1661.00 900.00 L 1663.00 900.00 L 1665.00 900.00 L 1667.00 900.00 L 1669.00 900.00 L 1671.00 900.00 L 1673.00 900.00 L 1675.00 900.00 L 1677.00 900.00 L 1679.00 900.00 L 1681.00 900.00 L 1683.00 900.00 L 1685.00 900.00 L 1687.00 900.00 L 1689.00 900.00 L 1691.00 900.00 L 1693.00 900.00 L 1695.00 900.00 L 1697.00 900.00 L 1699.00 900.00 L 1701.00 900.00 L 1703.00 900.00 L 1705.00 900.00 L 1707.00 900.00 L 1709.00 900.00 L 1711.00 900.00 L 1713.00 900.00 L 1715.00 900.00 L 1717.00 900.00 L 1719.00 900.00 L 1721.00 901.00 L 1723.00 901.00 L 1725.00 901.00 L 1727.00 901.00 L 1729.00 901.00 L 1731.00 901.00 L 1733.00 901.00 L 1735.00 901.00 L 1737.00 901.00 L 1739.00 900.00 L 1741.00 898.00 L 1742.00 896.00 L 1743.00 894.00 L 1745.00 892.00 L 1745.00 890.00 L 1747.00 888.00 L 1748.00 886.00 L 1749.00 884.00 L 1750.00 882.00 L 1752.00 880.00 L 1753.00 878.00 L 1754.00 876.00 L 1755.00 874.00 L 1756.00 872.00 L 1757.00 870.00 L 1758.00 868.00 L 1759.00 866.00 L 1761.00 864.00 L 1761.00 862.00 L 1762.00 860.00 L 1764.00 858.00 L 1765.00 856.00 L 1766.00 854.00 L 1767.00 852.00 L 1768.00 850.00 L 1769.00 848.00 L 1770.00 846.00 L 1771.00 844.00 L 1772.00 842.00 L 1773.00 840.00 L 1774.00 838.00 L 1775.00 836.00 L 1776.00 834.00 L 1777.00 832.00 L 1778.00 830.00 L 1779.00 828.00 L 1780.00 826.00 L 1781.00 824.00 L 1782.00 822.00 L 1783.00 820.00 L 1784.00 818.00 L 1785.00 816.00 L 1785.00 814.00 L 1786.00 812.00 L 1788.00 810.00 L 1789.00 808.00 L 1789.00 806.00 L 1790.00 804.00 L 1791.00 802.00 L 1792.00 800.00 L 1793.00 798.00 L 1794.00 796.00 L 1794.00 794.00 L 1795.00 792.00 L 1796.00 790.00 L 1797.00 788.00 L 1798.00 786.00 L 1798.00 784.00 L 1799.00 782.00 L 1800.00 780.00 L 1801.00 778.00 L 1802.00 776.00 L 1802.00 774.00 L 1803.00 772.00 L 1804.00 770.00 L 1805.00 768.00 L 1805.00 766.00 L 1806.00 764.00 L 1806.00 762.00 L 1808.00 760.00 L 1808.00 758.00 L 1809.00 756.00 L 1809.00 754.00 L 1810.00 752.00 L 1811.00 750.00 L 1811.00 748.00 L 1812.00 746.00 L 1813.00 744.00 L 1813.00 742.00 L 1814.00 740.00 L 1814.00 738.00 L 1815.00 736.00 L 1816.00 734.00 L 1817.00 732.00 L 1817.00 730.00 L 1818.00 728.00 L 1818.00 726.00 L 1818.00 724.00 L 1819.00 722.00 L 1820.00 720.00 L 1821.00 718.00 L 1821.00 716.00 L 1821.00 714.00 L 1822.00 712.00 L 1822.00 710.00 L 1823.00 708.00 L 1823.00 706.00 L 1824.00 704.00 L 1825.00 702.00 L 1825.00 700.00 L 1825.00 698.00 L 1826.00 696.00 L 1826.00 694.00 L 1826.00 692.00 L 1827.00 690.00 L 1828.00 688.00 L 1828.00 686.00 L 1829.00 684.00 L 1829.00 682.00 L 1829.00 680.00 L 1829.00 678.00 L 1830.00 676.00 L 1830.00 674.00 L 1831.00 672.00 L 1831.00 670.00 L 1832.00 668.00 L 1832.00 666.00 L 1833.00 664.00 L 1833.00 662.00 L 1833.00 660.00 L 1833.00 658.00 L 1834.00 656.00 L 1834.00 654.00 L 1834.00 652.00 L 1835.00 650.00 L 1835.00 648.00 L 1836.00 646.00 L 1836.00 644.00 L 1837.00 642.00 L 1837.00 640.00 L 1837.00 638.00 L 1837.00 636.00 L 1837.00 634.00 L 1838.00 632.00 L 1838.00 630.00 L 1838.00 628.00 L 1838.00 626.00 L 1839.00 624.00 L 1839.00 622.00 L 1840.00 620.00 L 1840.00 618.00 L 1840.00 616.00 L 1841.00 614.00 L 1841.00 612.00 L 1841.00 610.00 L 1841.00 608.00 L 1841.00 606.00 L 1841.00 604.00 L 1841.00 602.00 L 1842.00 600.00 L 1842.00 598.00 L 1842.00 596.00 L 1842.00 594.00 L 1842.00 592.00 L 1842.00 590.00 L 1842.00 588.00 L 1843.00 586.00 L 1843.00 584.00 L 1843.00 582.00 L 1843.00 580.00 L 1843.00 578.00 L 1844.00 576.00 L 1844.00 574.00 L 1844.00 572.00 L 1844.00 570.00 L 1844.00 568.00 L 1844.00 566.00 L 1844.00 564.00 L 1844.00 562.00 L 1845.00 560.00 L 1845.00 558.00 L 1845.00 556.00 L 1845.00 554.00 L 1845.00 552.00 L 1845.00 550.00 L 1845.00 548.00 L 1845.00 546.00 L 1845.00 544.00 L 1845.00 542.00 L 1845.00 540.00 L 1845.00 538.00 L 1845.00 536.00 L 1845.00 534.00 L 1845.00 532.00 L 1845.00 530.00 L 1845.00 528.00 L 1845.00 526.00 L 1845.00 524.00 L 1845.00 522.00 L 1845.00 520.00 L 1845.00 518.00 L 1845.00 516.00 L 1845.00 514.00 L 1845.00 512.00 L 1845.00 510.00 L 1845.00 508.00 L 1845.00 506.00 L 1845.00 504.00 L 1845.00 502.00 L 1845.00 500.00 L 1844.00 498.00 L 1844.00 496.00 L 1844.00 494.00 L 1844.00 492.00 L 1844.00 490.00 L 1844.00 488.00 L 1844.00 486.00 L 1844.00 484.00 L 1844.00 482.00 L 1843.00 480.00 L 1843.00 478.00 L 1843.00 476.00 L 1843.00 474.00 L 1843.00 472.00 L 1842.00 470.00 L 1842.00 468.00 L 1842.00 466.00 L 1842.00 464.00 L 1842.00 462.00 L 1842.00 460.00 L 1842.00 458.00 L 1841.00 456.00 L 1841.00 454.00 L 1841.00 452.00 L 1841.00 450.00 L 1841.00 448.00 L 1841.00 446.00 L 1840.00 444.00 L 1840.00 442.00 L 1840.00 440.00 L 1840.00 438.00 L 1839.00 436.00 L 1839.00 434.00 L 1839.00 432.00 L 1838.00 430.00 L 1838.00 428.00 L 1838.00 426.00 L 1838.00 424.00 L 1837.00 422.00 L 1837.00 420.00 L 1837.00 418.00 L 1837.00 416.00 L 1837.00 414.00 L 1836.00 412.00 L 1836.00 410.00 L 1835.00 408.00 L 1835.00 406.00 L 1834.00 404.00 L 1834.00 402.00 L 1834.00 400.00 L 1834.00 398.00 L 1833.00 396.00 L 1833.00 394.00 L 1833.00 392.00 L 1833.00 390.00 L 1832.00 388.00 L 1832.00 386.00 L 1831.00 384.00 L 1830.00 382.00 L 1830.00 380.00 L 1830.00 378.00 L 1829.00 376.00 L 1829.00 374.00 L 1829.00 372.00 L 1828.00 370.00 L 1828.00 368.00 L 1827.00 366.00 L 1827.00 364.00 L 1826.00 362.00 L 1826.00 360.00 L 1825.00 358.00 L 1825.00 356.00 L 1825.00 354.00 L 1824.00 352.00 L 1824.00 350.00 L 1823.00 348.00 L 1822.00 346.00 L 1822.00 344.00 L 1821.00 342.00 L 1821.00 340.00 L 1821.00 338.00 L 1820.00 336.00 L 1819.00 334.00 L 1818.00 332.00 L 1818.00 330.00 L 1817.00 328.00 L 1817.00 326.00 L 1817.00 324.00 L 1816.00 322.00 L 1815.00 320.00 L 1814.00 318.00 L 1814.00 316.00 L 1813.00 314.00 L 1813.00 312.00 L 1813.00 310.00 L 1812.00 308.00 L 1811.00 306.00 L 1810.00 304.00 L 1809.00 302.00 L 1809.00 300.00 L 1808.00 298.00 L 1807.00 296.00 L 1806.00 294.00 L 1806.00 292.00 L 1805.00 290.00 L 1805.00 288.00 L 1804.00 286.00 L 1803.00 284.00 L 1802.00 282.00 L 1801.00 280.00 L 1801.00 278.00 L 1800.00 276.00 L 1799.00 274.00 L 1798.00 272.00 L 1797.00 270.00 L 1797.00 268.00 L 1796.00 266.00 L 1795.00 264.00 L 1794.00 262.00 L 1793.00 260.00 L 1793.00 258.00 L 1792.00 256.00 L 1790.00 254.00 L 1790.00 252.00 L 1789.00 250.00 L 1788.00 248.00 L 1787.00 246.00 L 1786.00 244.00 L 1785.00 242.00 L 1785.00 240.00 L 1784.00 238.00 L 1782.00 236.00 L 1782.00 234.00 L 1781.00 232.00 L 1780.00 230.00 L 1779.00 228.00 L 1778.00 226.00 L 1777.00 224.00 L 1776.00 222.00 L 1775.00 220.00 L 1774.00 218.00 L 1773.00 216.00 L 1772.00 214.00 L 1771.00 212.00 L 1770.00 210.00 L 1769.00 208.00 L 1768.00 206.00 L 1766.00 204.00 L 1765.00 202.00 L 1765.00 200.00 L 1763.00 198.00 L 1762.00 196.00 L 1761.00 194.00 L 1760.00 192.00 L 1759.00 190.00 L 1757.00 188.00 L 1757.00 186.00 L 1755.00 184.00 L 1754.00 182.00 L 1753.00 180.00 L 1752.00 178.00 L 1750.00 176.00 L 1749.00 174.00 L 1748.00 172.00 L 1746.00 170.00 L 1745.00 168.00 L 1744.00 166.00 L 1742.00 164.00 L 1741.00 162.00 L 1740.00 160.00 L 1738.00 158.00 L 1737.00 156.00 L 1735.00 154.00 L 1733.00 154.00 L 1731.00 154.00 L 1729.00 154.00 L 1727.00 154.00 L 1725.00 154.00 L 1723.00 154.00 L 1721.00 154.00 L 1719.00 154.00 L 1717.00 154.00 L 1715.00 154.00 L 1713.00 154.00 L 1711.00 154.00 L 1709.00 154.00 L 1707.00 154.00 L 1705.00 154.00 L 1703.00 154.00 L 1701.00 154.00 L 1699.00 154.00 L 1697.00 154.00 L 1695.00 154.00 L 1693.00 154.00 L 1691.00 154.00 L 1689.00 154.00 L 1687.00 154.00 L 1685.00 154.00 L 1683.00 154.00 L 1681.00 154.00 L 1679.00 154.00 L 1677.00 154.00 L 1675.00 154.00 L 1673.00 154.00 L 1671.00 154.00 L 1669.00 154.00 L 1667.00 154.00 L 1665.00 154.00 L 1663.00 154.00 L 1661.00 154.00 L 1659.00 154.00 L 1657.00 154.00 L 1655.00 154.00 L 1653.00 154.00 L 1651.00 154.00 L 1649.00 154.00 L 1647.00 154.00 L 1645.00 154.00 L 1643.00 154.00 L 1641.00 154.00 L 1639.00 154.00 L 1637.00 154.00 Z M 141.00 154.00 L 139.00 156.00 L 137.00 158.00 L 136.00 160.00 L 135.00 162.00 L 133.00 164.00 L 132.00 166.00 L 131.00 168.00 L 130.00 170.00 L 128.00 172.00 L 127.00 174.00 L 126.00 176.00 L 125.00 178.00 L 124.00 180.00 L 123.00 182.00 L 121.00 184.00 L 120.00 186.00 L 119.00 188.00 L 118.00 190.00 L 117.00 192.00 L 116.00 194.00 L 115.00 196.00 L 113.00 198.00 L 112.00 200.00 L 111.00 202.00 L 110.00 204.00 L 109.00 206.00 L 108.00 208.00 L 107.00 210.00 L 106.00 212.00 L 105.00 214.00 L 104.00 216.00 L 103.00 218.00 L 102.00 220.00 L 101.00 222.00 L 100.00 224.00 L 99.00 226.00 L 98.00 228.00 L 97.00 230.00 L 96.00 232.00 L 95.00 234.00 L 94.00 236.00 L 93.00 238.00 L 92.00 240.00 L 91.00 242.00 L 91.00 244.00 L 90.00 246.00 L 89.00 248.00 L 88.00 250.00 L 87.00 252.00 L 86.00 254.00 L 85.00 256.00 L 84.00 258.00 L 84.00 260.00 L 83.00 262.00 L 82.00 264.00 L 81.00 266.00 L 80.00 268.00 L 80.00 270.00 L 79.00 272.00 L 78.00 274.00 L 77.00 276.00 L 76.00 278.00 L 76.00 280.00 L 75.00 282.00 L 74.00 284.00 L 73.00 286.00 L 73.00 288.00 L 72.00 290.00 L 71.00 292.00 L 71.00 294.00 L 70.00 296.00 L 69.00 298.00 L 68.00 300.00 L 68.00 302.00 L 67.00 304.00 L 67.00 306.00 L 66.00 308.00 L 65.00 310.00 L 64.00 312.00 L 64.00 314.00 L 64.00 316.00 L 63.00 318.00 L 62.00 320.00 L 61.00 322.00 L 61.00 324.00 L 60.00 326.00 L 60.00 328.00 L 59.00 330.00 L 59.00 332.00 L 58.00 334.00 L 57.00 336.00 L 57.00 338.00 L 56.00 340.00 L 56.00 342.00 L 55.00 344.00 L 55.00 346.00 L 54.00 348.00 L 54.00 350.00 L 53.00 352.00 L 52.00 354.00 L 52.00 356.00 L 52.00 358.00 L 51.00 360.00 L 51.00 362.00 L 50.00 364.00 L 50.00 366.00 L 49.00 368.00 L 49.00 370.00 L 48.00 372.00 L 48.00 374.00 L 48.00 376.00 L 47.00 378.00 L 47.00 380.00 L 47.00 382.00 L 46.00 384.00 L 46.00 386.00 L 45.00 388.00 L 45.00 390.00 L 44.00 392.00 L 44.00 394.00 L 44.00 396.00 L 44.00 398.00 L 43.00 400.00 L 43.00 402.00 L 43.00 404.00 L 42.00 406.00 L 42.00 408.00 L 41.00 410.00 L 41.00 412.00 L 41.00 414.00 L 40.00 416.00 L 40.00 418.00 L 40.00 420.00 L 40.00 422.00 L 40.00 424.00 L 39.00 426.00 L 39.00 428.00 L 39.00 430.00 L 39.00 432.00 L 39.00 434.00 L 38.00 436.00 L 38.00 438.00 L 37.00 440.00 L 37.00 442.00 L 37.00 444.00 L 37.00 446.00 L 36.00 448.00 L 36.00 450.00 L 36.00 452.00 L 36.00 454.00 L 36.00 456.00 L 36.00 458.00 L 36.00 460.00 L 35.00 462.00 L 35.00 464.00 L 35.00 466.00 L 35.00 468.00 L 35.00 470.00 L 35.00 472.00 L 35.00 474.00 L 34.00 476.00 L 34.00 478.00 L 34.00 480.00 L 34.00 482.00 L 34.00 484.00 L 33.00 486.00 L 33.00 488.00 L 33.00 490.00 L 33.00 492.00 L 33.00 494.00 L 33.00 496.00 L 33.00 498.00 L 33.00 500.00 L 32.00 502.00 L 32.00 504.00 L 32.00 506.00 L 32.00 508.00 L 32.00 510.00 L 32.00 512.00 L 32.00 514.00 L 32.00 516.00 L 32.00 518.00 L 32.00 520.00 L 32.00 522.00 L 32.00 524.00 L 32.00 526.00 L 32.00 528.00 L 32.00 530.00 L 32.00 532.00 L 32.00 534.00 L 32.00 536.00 L 32.00 538.00 L 32.00 540.00 L 32.00 542.00 L 32.00 544.00 L 32.00 546.00 L 32.00 548.00 L 32.00 550.00 L 32.00 552.00 L 32.00 554.00 L 32.00 556.00 L 32.00 558.00 L 32.00 560.00 L 32.00 562.00 L 32.00 564.00 L 33.00 566.00 L 33.00 568.00 L 33.00 570.00 L 33.00 572.00 L 33.00 574.00 L 33.00 576.00 L 33.00 578.00 L 33.00 580.00 L 34.00 582.00 L 34.00 584.00 L 34.00 586.00 L 34.00 588.00 L 34.00 590.00 L 35.00 592.00 L 35.00 594.00 L 35.00 596.00 L 35.00 598.00 L 35.00 600.00 L 35.00 602.00 L 35.00 604.00 L 36.00 606.00 L 36.00 608.00 L 36.00 610.00 L 36.00 612.00 L 36.00 614.00 L 36.00 616.00 L 37.00 618.00 L 37.00 620.00 L 37.00 622.00 L 38.00 624.00 L 38.00 626.00 L 38.00 628.00 L 39.00 630.00 L 39.00 632.00 L 39.00 634.00 L 39.00 636.00 L 40.00 638.00 L 40.00 640.00 L 40.00 642.00 L 40.00 644.00 L 40.00 646.00 L 41.00 648.00 L 41.00 650.00 L 42.00 652.00 L 42.00 654.00 L 43.00 656.00 L 43.00 658.00 L 43.00 660.00 L 44.00 662.00 L 44.00 664.00 L 44.00 666.00 L 44.00 668.00 L 45.00 670.00 L 45.00 672.00 L 46.00 674.00 L 46.00 676.00 L 47.00 678.00 L 47.00 680.00 L 47.00 682.00 L 48.00 684.00 L 48.00 686.00 L 48.00 688.00 L 49.00 690.00 L 49.00 692.00 L 50.00 694.00 L 51.00 696.00 L 51.00 698.00 L 51.00 700.00 L 52.00 702.00 L 52.00 704.00 L 52.00 706.00 L 53.00 708.00 L 54.00 710.00 L 54.00 712.00 L 55.00 714.00 L 55.00 716.00 L 56.00 718.00 L 56.00 720.00 L 57.00 722.00 L 57.00 724.00 L 58.00 726.00 L 59.00 728.00 L 59.00 730.00 L 60.00 732.00 L 60.00 734.00 L 61.00 736.00 L 62.00 738.00 L 62.00 740.00 L 63.00 742.00 L 63.00 744.00 L 64.00 746.00 L 64.00 748.00 L 65.00 750.00 L 66.00 752.00 L 67.00 754.00 L 67.00 756.00 L 68.00 758.00 L 69.00 760.00 L 69.00 762.00 L 70.00 764.00 L 71.00 766.00 L 72.00 768.00 L 72.00 770.00 L 73.00 772.00 L 74.00 774.00 L 75.00 776.00 L 76.00 778.00 L 76.00 780.00 L 77.00 782.00 L 78.00 784.00 L 79.00 786.00 L 79.00 788.00 L 80.00 790.00 L 81.00 792.00 L 82.00 794.00 L 83.00 796.00 L 84.00 798.00 L 84.00 800.00 L 85.00 802.00 L 86.00 804.00 L 87.00 806.00 L 88.00 808.00 L 89.00 810.00 L 90.00 812.00 L 91.00 814.00 L 92.00 816.00 L 92.00 818.00 L 93.00 820.00 L 95.00 822.00 L 95.00 824.00 L 96.00 826.00 L 97.00 828.00 L 98.00 830.00 L 99.00 832.00 L 100.00 834.00 L 101.00 836.00 L 102.00 838.00 L 103.00 840.00 L 104.00 842.00 L 105.00 844.00 L 106.00 846.00 L 107.00 848.00 L 108.00 850.00 L 109.00 852.00 L 110.00 854.00 L 111.00 856.00 L 112.00 858.00 L 113.00 860.00 L 115.00 862.00 L 116.00 864.00 L 117.00 866.00 L 118.00 868.00 L 119.00 870.00 L 120.00 872.00 L 121.00 874.00 L 123.00 876.00 L 124.00 878.00 L 125.00 880.00 L 126.00 882.00 L 127.00 884.00 L 128.00 886.00 L 130.00 888.00 L 131.00 890.00 L 132.00 892.00 L 134.00 894.00 L 135.00 896.00 L 136.00 898.00 L 138.00 900.00 L 140.00 900.00 L 142.00 900.00 L 144.00 900.00 L 146.00 900.00 L 148.00 900.00 L 150.00 900.00 L 152.00 900.00 L 154.00 900.00 L 156.00 900.00 L 158.00 900.00 L 160.00 900.00 L 162.00 900.00 L 164.00 900.00 L 166.00 900.00 L 168.00 900.00 L 170.00 900.00 L 172.00 900.00 L 174.00 900.00 L 176.00 900.00 L 178.00 900.00 L 180.00 900.00 L 182.00 900.00 L 184.00 900.00 L 186.00 900.00 L 188.00 900.00 L 190.00 900.00 L 192.00 900.00 L 194.00 900.00 L 196.00 900.00 L 198.00 900.00 L 200.00 900.00 L 202.00 900.00 L 204.00 900.00 L 206.00 900.00 L 208.00 900.00 L 210.00 900.00 L 212.00 900.00 L 214.00 900.00 L 216.00 900.00 L 218.00 900.00 L 220.00 900.00 L 222.00 900.00 L 224.00 900.00 L 226.00 900.00 L 228.00 900.00 L 230.00 900.00 L 232.00 900.00 L 234.00 900.00 L 236.00 900.00 L 238.00 900.00 L 238.00 898.00 L 237.00 896.00 L 236.00 894.00 L 235.00 892.00 L 233.00 890.00 L 232.00 888.00 L 230.00 886.00 L 229.00 884.00 L 228.00 882.00 L 226.00 880.00 L 225.00 878.00 L 224.00 876.00 L 222.00 874.00 L 221.00 872.00 L 220.00 870.00 L 218.00 868.00 L 217.00 866.00 L 216.00 864.00 L 215.00 862.00 L 214.00 860.00 L 213.00 858.00 L 212.00 856.00 L 210.00 854.00 L 209.00 852.00 L 208.00 850.00 L 207.00 848.00 L 206.00 846.00 L 205.00 844.00 L 204.00 842.00 L 203.00 840.00 L 202.00 838.00 L 201.00 836.00 L 200.00 834.00 L 198.00 832.00 L 198.00 830.00 L 197.00 828.00 L 196.00 826.00 L 194.00 824.00 L 193.00 822.00 L 193.00 820.00 L 192.00 818.00 L 190.00 816.00 L 189.00 814.00 L 189.00 812.00 L 188.00 810.00 L 186.00 808.00 L 186.00 806.00 L 185.00 804.00 L 184.00 802.00 L 183.00 800.00 L 182.00 798.00 L 181.00 796.00 L 180.00 794.00 L 179.00 792.00 L 178.00 790.00 L 177.00 788.00 L 177.00 786.00 L 176.00 784.00 L 175.00 782.00 L 174.00 780.00 L 173.00 778.00 L 173.00 776.00 L 172.00 774.00 L 171.00 772.00 L 170.00 770.00 L 169.00 768.00 L 169.00 766.00 L 168.00 764.00 L 167.00 762.00 L 166.00 760.00 L 165.00 758.00 L 165.00 756.00 L 164.00 754.00 L 163.00 752.00 L 162.00 750.00 L 162.00 748.00 L 161.00 746.00 L 161.00 744.00 L 160.00 742.00 L 159.00 740.00 L 158.00 738.00 L 158.00 736.00 L 157.00 734.00 L 157.00 732.00 L 156.00 730.00 L 155.00 728.00 L 154.00 726.00 L 154.00 724.00 L 153.00 722.00 L 153.00 720.00 L 153.00 718.00 L 152.00 716.00 L 151.00 714.00 L 151.00 712.00 L 150.00 710.00 L 150.00 708.00 L 149.00 706.00 L 149.00 704.00 L 149.00 702.00 L 148.00 700.00 L 147.00 698.00 L 146.00 696.00 L 146.00 694.00 L 146.00 692.00 L 145.00 690.00 L 145.00 688.00 L 145.00 686.00 L 144.00 684.00 L 143.00 682.00 L 143.00 680.00 L 142.00 678.00 L 142.00 676.00 L 142.00 674.00 L 141.00 672.00 L 141.00 670.00 L 141.00 668.00 L 140.00 666.00 L 139.00 664.00 L 139.00 662.00 L 138.00 660.00 L 138.00 658.00 L 138.00 656.00 L 138.00 654.00 L 137.00 652.00 L 137.00 650.00 L 137.00 648.00 L 136.00 646.00 L 136.00 644.00 L 135.00 642.00 L 135.00 640.00 L 134.00 638.00 L 134.00 636.00 L 134.00 634.00 L 134.00 632.00 L 133.00 630.00 L 133.00 628.00 L 133.00 626.00 L 133.00 624.00 L 132.00 622.00 L 132.00 620.00 L 132.00 618.00 L 131.00 616.00 L 131.00 614.00 L 131.00 612.00 L 130.00 610.00 L 130.00 608.00 L 130.00 606.00 L 130.00 604.00 L 129.00 602.00 L 129.00 600.00 L 129.00 598.00 L 129.00 596.00 L 129.00 594.00 L 129.00 592.00 L 129.00 590.00 L 128.00 588.00 L 128.00 586.00 L 128.00 584.00 L 128.00 582.00 L 128.00 580.00 L 127.00 578.00 L 127.00 576.00 L 127.00 574.00 L 127.00 572.00 L 127.00 570.00 L 127.00 568.00 L 126.00 566.00 L 126.00 564.00 L 126.00 562.00 L 126.00 560.00 L 126.00 558.00 L 126.00 556.00 L 126.00 554.00 L 126.00 552.00 L 126.00 550.00 L 126.00 548.00 L 126.00 546.00 L 126.00 544.00 L 126.00 542.00 L 126.00 540.00 L 126.00 538.00 L 126.00 536.00 L 126.00 534.00 L 126.00 532.00 L 126.00 530.00 L 126.00 528.00 L 126.00 526.00 L 126.00 524.00 L 126.00 522.00 L 126.00 520.00 L 126.00 518.00 L 126.00 516.00 L 126.00 514.00 L 126.00 512.00 L 126.00 510.00 L 126.00 508.00 L 126.00 506.00 L 126.00 504.00 L 126.00 502.00 L 126.00 500.00 L 126.00 498.00 L 126.00 496.00 L 126.00 494.00 L 126.00 492.00 L 127.00 490.00 L 127.00 488.00 L 127.00 486.00 L 127.00 484.00 L 127.00 482.00 L 127.00 480.00 L 128.00 478.00 L 128.00 476.00 L 128.00 474.00 L 128.00 472.00 L 129.00 470.00 L 129.00 468.00 L 129.00 466.00 L 129.00 464.00 L 129.00 462.00 L 129.00 460.00 L 129.00 458.00 L 130.00 456.00 L 130.00 454.00 L 130.00 452.00 L 130.00 450.00 L 130.00 448.00 L 131.00 446.00 L 131.00 444.00 L 131.00 442.00 L 132.00 440.00 L 132.00 438.00 L 133.00 436.00 L 133.00 434.00 L 133.00 432.00 L 133.00 430.00 L 133.00 428.00 L 134.00 426.00 L 134.00 424.00 L 134.00 422.00 L 134.00 420.00 L 135.00 418.00 L 135.00 416.00 L 136.00 414.00 L 136.00 412.00 L 137.00 410.00 L 137.00 408.00 L 137.00 406.00 L 137.00 404.00 L 138.00 402.00 L 138.00 400.00 L 138.00 398.00 L 139.00 396.00 L 140.00 394.00 L 140.00 392.00 L 141.00 390.00 L 141.00 388.00 L 141.00 386.00 L 142.00 384.00 L 142.00 382.00 L 142.00 380.00 L 143.00 378.00 L 143.00 376.00 L 144.00 374.00 L 145.00 372.00 L 145.00 370.00 L 145.00 368.00 L 146.00 366.00 L 146.00 364.00 L 147.00 362.00 L 147.00 360.00 L 148.00 358.00 L 149.00 356.00 L 149.00 354.00 L 150.00 352.00 L 150.00 350.00 L 150.00 348.00 L 151.00 346.00 L 152.00 344.00 L 153.00 342.00 L 153.00 340.00 L 153.00 338.00 L 154.00 336.00 L 154.00 334.00 L 155.00 332.00 L 156.00 330.00 L 157.00 328.00 L 157.00 326.00 L 158.00 324.00 L 158.00 322.00 L 159.00 320.00 L 160.00 318.00 L 161.00 316.00 L 161.00 314.00 L 162.00 312.00 L 162.00 310.00 L 163.00 308.00 L 164.00 306.00 L 165.00 304.00 L 165.00 302.00 L 166.00 300.00 L 166.00 298.00 L 168.00 296.00 L 169.00 294.00 L 169.00 292.00 L 170.00 290.00 L 170.00 288.00 L 171.00 286.00 L 172.00 284.00 L 173.00 282.00 L 174.00 280.00 L 174.00 278.00 L 176.00 276.00 L 177.00 274.00 L 177.00 272.00 L 178.00 270.00 L 179.00 268.00 L 180.00 266.00 L 181.00 264.00 L 182.00 262.00 L 182.00 260.00 L 184.00 258.00 L 185.00 256.00 L 185.00 254.00 L 186.00 252.00 L 187.00 250.00 L 189.00 248.00 L 189.00 246.00 L 190.00 244.00 L 191.00 242.00 L 193.00 240.00 L 193.00 238.00 L 194.00 236.00 L 195.00 234.00 L 197.00 232.00 L 197.00 230.00 L 198.00 228.00 L 200.00 226.00 L 201.00 224.00 L 202.00 222.00 L 203.00 220.00 L 204.00 218.00 L 205.00 216.00 L 206.00 214.00 L 207.00 212.00 L 209.00 210.00 L 210.00 208.00 L 211.00 206.00 L 212.00 204.00 L 213.00 202.00 L 214.00 200.00 L 216.00 198.00 L 217.00 196.00 L 218.00 194.00 L 219.00 192.00 L 221.00 190.00 L 222.00 188.00 L 223.00 186.00 L 225.00 184.00 L 225.00 182.00 L 227.00 180.00 L 228.00 178.00 L 230.00 176.00 L 231.00 174.00 L 232.00 172.00 L 233.00 170.00 L 235.00 168.00 L 237.00 166.00 L 238.00 164.00 L 240.00 162.00 L 241.00 160.00 L 242.00 158.00 L 244.00 156.00 L 244.00 154.00 L 242.00 154.00 L 240.00 154.00 L 238.00 154.00 L 236.00 154.00 L 234.00 154.00 L 232.00 154.00 L 230.00 154.00 L 228.00 154.00 L 226.00 154.00 L 224.00 154.00 L 222.00 154.00 L 220.00 154.00 L 218.00 154.00 L 216.00 154.00 L 214.00 154.00 L 212.00 154.00 L 210.00 154.00 L 208.00 154.00 L 206.00 154.00 L 204.00 154.00 L 202.00 154.00 L 200.00 154.00 L 198.00 154.00 L 196.00 154.00 L 194.00 154.00 L 192.00 154.00 L 190.00 154.00 L 188.00 154.00 L 186.00 154.00 L 184.00 154.00 L 182.00 154.00 L 180.00 154.00 L 178.00 154.00 L 176.00 154.00 L 174.00 154.00 L 172.00 154.00 L 170.00 154.00 L 168.00 154.00 L 166.00 154.00 L 164.00 154.00 L 162.00 154.00 L 160.00 154.00 L 158.00 154.00 L 156.00 154.00 L 154.00 154.00 L 152.00 154.00 L 150.00 154.00 L 148.00 154.00 L 146.00 154.00 L 144.00 154.00 L 142.00 154.00 Z M 1399.00 32.00 L 1398.00 34.00 L 1397.00 36.00 L 1396.00 38.00 L 1395.00 40.00 L 1394.00 42.00 L 1393.00 44.00 L 1392.00 46.00 L 1391.00 48.00 L 1389.00 50.00 L 1388.00 52.00 L 1387.00 54.00 L 1386.00 56.00 L 1385.00 58.00 L 1384.00 60.00 L 1383.00 62.00 L 1382.00 64.00 L 1381.00 66.00 L 1380.00 68.00 L 1379.00 70.00 L 1378.00 72.00 L 1376.00 74.00 L 1376.00 76.00 L 1375.00 78.00 L 1373.00 80.00 L 1372.00 82.00 L 1371.00 84.00 L 1370.00 86.00 L 1369.00 88.00 L 1368.00 90.00 L 1367.00 92.00 L 1366.00 94.00 L 1365.00 96.00 L 1364.00 98.00 L 1363.00 100.00 L 1362.00 102.00 L 1360.00 104.00 L 1360.00 106.00 L 1359.00 108.00 L 1357.00 110.00 L 1356.00 112.00 L 1355.00 114.00 L 1354.00 116.00 L 1353.00 118.00 L 1352.00 120.00 L 1351.00 122.00 L 1350.00 124.00 L 1348.00 126.00 L 1348.00 128.00 L 1347.00 130.00 L 1345.00 132.00 L 1344.00 134.00 L 1343.00 136.00 L 1342.00 138.00 L 1341.00 140.00 L 1340.00 142.00 L 1339.00 144.00 L 1338.00 146.00 L 1337.00 148.00 L 1336.00 150.00 L 1335.00 152.00 L 1334.00 154.00 L 1333.00 156.00 L 1332.00 158.00 L 1331.00 160.00 L 1329.00 162.00 L 1328.00 164.00 L 1327.00 166.00 L 1327.00 168.00 L 1325.00 170.00 L 1324.00 172.00 L 1323.00 174.00 L 1322.00 176.00 L 1321.00 178.00 L 1320.00 180.00 L 1319.00 182.00 L 1318.00 184.00 L 1316.00 186.00 L 1315.00 188.00 L 1314.00 190.00 L 1313.00 192.00 L 1312.00 194.00 L 1311.00 196.00 L 1310.00 198.00 L 1309.00 200.00 L 1308.00 202.00 L 1307.00 204.00 L 1306.00 206.00 L 1304.00 208.00 L 1303.00 210.00 L 1302.00 212.00 L 1301.00 214.00 L 1300.00 216.00 L 1299.00 218.00 L 1298.00 220.00 L 1296.00 222.00 L 1296.00 224.00 L 1295.00 226.00 L 1293.00 228.00 L 1292.00 230.00 L 1291.00 232.00 L 1290.00 234.00 L 1289.00 236.00 L 1288.00 238.00 L 1287.00 240.00 L 1286.00 242.00 L 1285.00 244.00 L 1284.00 246.00 L 1283.00 248.00 L 1282.00 250.00 L 1281.00 252.00 L 1280.00 254.00 L 1279.00 256.00 L 1277.00 258.00 L 1276.00 260.00 L 1275.00 262.00 L 1274.00 264.00 L 1273.00 266.00 L 1272.00 268.00 L 1271.00 270.00 L 1270.00 272.00 L 1269.00 274.00 L 1268.00 276.00 L 1267.00 278.00 L 1266.00 280.00 L 1264.00 282.00 L 1264.00 284.00 L 1263.00 286.00 L 1261.00 288.00 L 1260.00 290.00 L 1259.00 292.00 L 1258.00 294.00 L 1257.00 296.00 L 1256.00 298.00 L 1255.00 300.00 L 1253.00 302.00 L 1252.00 304.00 L 1251.00 306.00 L 1250.00 308.00 L 1249.00 310.00 L 1248.00 312.00 L 1247.00 314.00 L 1246.00 316.00 L 1245.00 318.00 L 1244.00 320.00 L 1243.00 322.00 L 1242.00 324.00 L 1241.00 326.00 L 1240.00 328.00 L 1239.00 330.00 L 1238.00 332.00 L 1236.00 334.00 L 1235.00 336.00 L 1234.00 338.00 L 1233.00 340.00 L 1232.00 342.00 L 1231.00 344.00 L 1230.00 346.00 L 1229.00 348.00 L 1228.00 350.00 L 1227.00 352.00 L 1226.00 354.00 L 1225.00 356.00 L 1224.00 358.00 L 1223.00 360.00 L 1222.00 362.00 L 1220.00 364.00 L 1220.00 366.00 L 1219.00 368.00 L 1217.00 370.00 L 1216.00 372.00 L 1215.00 374.00 L 1214.00 376.00 L 1213.00 378.00 L 1212.00 380.00 L 1211.00 382.00 L 1210.00 384.00 L 1208.00 386.00 L 1208.00 388.00 L 1207.00 390.00 L 1205.00 392.00 L 1204.00 394.00 L 1203.00 396.00 L 1202.00 398.00 L 1201.00 400.00 L 1200.00 402.00 L 1199.00 404.00 L 1198.00 406.00 L 1197.00 408.00 L 1196.00 410.00 L 1195.00 412.00 L 1194.00 414.00 L 1193.00 416.00 L 1192.00 418.00 L 1191.00 420.00 L 1189.00 422.00 L 1188.00 424.00 L 1187.00 426.00 L 1187.00 428.00 L 1185.00 430.00 L 1184.00 432.00 L 1183.00 434.00 L 1182.00 436.00 L 1181.00 438.00 L 1180.00 440.00 L 1179.00 442.00 L 1178.00 444.00 L 1176.00 446.00 L 1176.00 448.00 L 1175.00 450.00 L 1174.00 452.00 L 1172.00 454.00 L 1171.00 456.00 L 1171.00 458.00 L 1169.00 460.00 L 1168.00 462.00 L 1167.00 464.00 L 1166.00 466.00 L 1165.00 468.00 L 1164.00 470.00 L 1163.00 472.00 L 1162.00 474.00 L 1161.00 476.00 L 1160.00 478.00 L 1159.00 480.00 L 1158.00 482.00 L 1156.00 484.00 L 1156.00 486.00 L 1155.00 488.00 L 1153.00 490.00 L 1152.00 492.00 L 1151.00 494.00 L 1151.00 496.00 L 1149.00 498.00 L 1148.00 500.00 L 1147.00 502.00 L 1146.00 504.00 L 1145.00 506.00 L 1144.00 508.00 L 1143.00 510.00 L 1142.00 512.00 L 1141.00 514.00 L 1140.00 516.00 L 1139.00 518.00 L 1138.00 520.00 L 1136.00 522.00 L 1136.00 524.00 L 1135.00 526.00 L 1133.00 528.00 L 1132.00 530.00 L 1131.00 532.00 L 1130.00 534.00 L 1129.00 536.00 L 1128.00 538.00 L 1127.00 540.00 L 1126.00 542.00 L 1124.00 544.00 L 1124.00 546.00 L 1123.00 548.00 L 1121.00 550.00 L 1120.00 552.00 L 1119.00 554.00 L 1118.00 556.00 L 1117.00 558.00 L 1116.00 560.00 L 1115.00 562.00 L 1114.00 564.00 L 1113.00 566.00 L 1112.00 568.00 L 1111.00 570.00 L 1110.00 572.00 L 1108.00 574.00 L 1108.00 576.00 L 1107.00 578.00 L 1106.00 580.00 L 1104.00 582.00 L 1104.00 584.00 L 1103.00 586.00 L 1101.00 588.00 L 1100.00 590.00 L 1099.00 592.00 L 1098.00 594.00 L 1097.00 596.00 L 1096.00 598.00 L 1095.00 600.00 L 1094.00 602.00 L 1092.00 604.00 L 1091.00 606.00 L 1091.00 608.00 L 1089.00 610.00 L 1088.00 612.00 L 1087.00 614.00 L 1086.00 616.00 L 1085.00 618.00 L 1084.00 620.00 L 1083.00 622.00 L 1082.00 624.00 L 1081.00 626.00 L 1080.00 628.00 L 1079.00 630.00 L 1078.00 632.00 L 1076.00 634.00 L 1076.00 636.00 L 1075.00 638.00 L 1073.00 640.00 L 1072.00 642.00 L 1071.00 644.00 L 1070.00 646.00 L 1069.00 648.00 L 1068.00 650.00 L 1067.00 652.00 L 1066.00 654.00 L 1065.00 656.00 L 1064.00 658.00 L 1063.00 660.00 L 1061.00 662.00 L 1060.00 664.00 L 1059.00 666.00 L 1058.00 668.00 L 1057.00 670.00 L 1056.00 672.00 L 1055.00 674.00 L 1054.00 676.00 L 1052.00 678.00 L 1051.00 680.00 L 1050.00 682.00 L 1049.00 684.00 L 1048.00 686.00 L 1047.00 688.00 L 1046.00 690.00 L 1044.00 692.00 L 1043.00 694.00 L 1043.00 696.00 L 1041.00 698.00 L 1040.00 700.00 L 1039.00 702.00 L 1038.00 704.00 L 1037.00 706.00 L 1036.00 708.00 L 1035.00 710.00 L 1034.00 712.00 L 1033.00 714.00 L 1032.00 716.00 L 1031.00 718.00 L 1030.00 720.00 L 1029.00 722.00 L 1028.00 724.00 L 1027.00 726.00 L 1025.00 728.00 L 1024.00 730.00 L 1023.00 732.00 L 1022.00 734.00 L 1021.00 736.00 L 1020.00 738.00 L 1019.00 740.00 L 1018.00 742.00 L 1016.00 744.00 L 1016.00 746.00 L 1015.00 748.00 L 1013.00 750.00 L 1012.00 752.00 L 1011.00 754.00 L 1011.00 756.00 L 1009.00 758.00 L 1008.00 760.00 L 1007.00 762.00 L 1006.00 764.00 L 1005.00 766.00 L 1004.00 768.00 L 1003.00 770.00 L 1002.00 772.00 L 1001.00 774.00 L 1000.00 776.00 L 999.00 778.00 L 998.00 780.00 L 997.00 782.00 L 996.00 784.00 L 995.00 786.00 L 994.00 788.00 L 993.00 790.00 L 992.00 792.00 L 991.00 794.00 L 990.00 796.00 L 988.00 798.00 L 987.00 800.00 L 986.00 802.00 L 985.00 804.00 L 984.00 806.00 L 983.00 808.00 L 982.00 810.00 L 981.00 812.00 L 980.00 814.00 L 979.00 816.00 L 978.00 818.00 L 976.00 820.00 L 976.00 822.00 L 975.00 824.00 L 974.00 826.00 L 972.00 828.00 L 972.00 830.00 L 971.00 832.00 L 970.00 834.00 L 968.00 836.00 L 968.00 838.00 L 967.00 840.00 L 965.00 842.00 L 964.00 844.00 L 963.00 846.00 L 963.00 848.00 L 961.00 850.00 L 960.00 852.00 L 959.00 854.00 L 958.00 856.00 L 957.00 858.00 L 956.00 860.00 L 955.00 862.00 L 954.00 864.00 L 952.00 866.00 L 952.00 868.00 L 951.00 870.00 L 949.00 872.00 L 948.00 874.00 L 947.00 876.00 L 946.00 878.00 L 945.00 880.00 L 944.00 882.00 L 943.00 884.00 L 942.00 886.00 L 941.00 888.00 L 940.00 890.00 L 939.00 892.00 L 938.00 894.00 L 937.00 896.00 L 936.00 898.00 L 935.00 900.00 L 934.00 902.00 L 933.00 904.00 L 932.00 906.00 L 931.00 908.00 L 930.00 910.00 L 929.00 912.00 L 928.00 914.00 L 927.00 916.00 L 926.00 918.00 L 924.00 920.00 L 924.00 922.00 L 923.00 924.00 L 921.00 926.00 L 920.00 928.00 L 919.00 930.00 L 918.00 932.00 L 917.00 934.00 L 916.00 936.00 L 915.00 938.00 L 914.00 940.00 L 913.00 942.00 L 912.00 944.00 L 911.00 946.00 L 910.00 948.00 L 908.00 950.00 L 908.00 952.00 L 907.00 954.00 L 905.00 956.00 L 904.00 958.00 L 903.00 960.00 L 902.00 962.00 L 901.00 964.00 L 900.00 966.00 L 899.00 968.00 L 898.00 970.00 L 897.00 972.00 L 896.00 974.00 L 895.00 976.00 L 894.00 978.00 L 892.00 980.00 L 892.00 982.00 L 891.00 984.00 L 890.00 986.00 L 890.00 988.00 L 892.00 989.00 L 894.00 990.00 L 896.00 992.00 L 898.00 993.00 L 900.00 994.00 L 902.00 996.00 L 904.00 997.00 L 906.00 999.00 L 908.00 1000.00 L 910.00 1002.00 L 912.00 1002.00 L 914.00 1001.00 L 916.00 999.00 L 917.00 997.00 L 917.00 995.00 L 918.00 993.00 L 920.00 991.00 L 921.00 989.00 L 922.00 987.00 L 923.00 985.00 L 924.00 983.00 L 925.00 981.00 L 926.00 979.00 L 927.00 977.00 L 928.00 975.00 L 929.00 973.00 L 930.00 971.00 L 931.00 969.00 L 933.00 967.00 L 933.00 965.00 L 934.00 963.00 L 935.00 961.00 L 937.00 959.00 L 937.00 957.00 L 938.00 955.00 L 940.00 953.00 L 941.00 951.00 L 942.00 949.00 L 943.00 947.00 L 944.00 945.00 L 945.00 943.00 L 946.00 941.00 L 947.00 939.00 L 949.00 937.00 L 949.00 935.00 L 950.00 933.00 L 952.00 931.00 L 953.00 929.00 L 954.00 927.00 L 955.00 925.00 L 956.00 923.00 L 957.00 921.00 L 958.00 919.00 L 959.00 917.00 L 960.00 915.00 L 961.00 913.00 L 962.00 911.00 L 963.00 909.00 L 965.00 907.00 L 965.00 905.00 L 966.00 903.00 L 968.00 901.00 L 969.00 899.00 L 970.00 897.00 L 971.00 895.00 L 972.00 893.00 L 973.00 891.00 L 974.00 889.00 L 975.00 887.00 L 976.00 885.00 L 977.00 883.00 L 978.00 881.00 L 979.00 879.00 L 980.00 877.00 L 981.00 875.00 L 982.00 873.00 L 983.00 871.00 L 985.00 869.00 L 985.00 867.00 L 986.00 865.00 L 988.00 863.00 L 989.00 861.00 L 990.00 859.00 L 991.00 857.00 L 992.00 855.00 L 993.00 853.00 L 994.00 851.00 L 995.00 849.00 L 996.00 847.00 L 997.00 845.00 L 998.00 843.00 L 999.00 841.00 L 1001.00 839.00 L 1001.00 837.00 L 1002.00 835.00 L 1004.00 833.00 L 1005.00 831.00 L 1006.00 829.00 L 1007.00 827.00 L 1008.00 825.00 L 1009.00 823.00 L 1010.00 821.00 L 1011.00 819.00 L 1012.00 817.00 L 1013.00 815.00 L 1014.00 813.00 L 1015.00 811.00 L 1017.00 809.00 L 1018.00 807.00 L 1018.00 805.00 L 1020.00 803.00 L 1021.00 801.00 L 1022.00 799.00 L 1023.00 797.00 L 1024.00 795.00 L 1025.00 793.00 L 1026.00 791.00 L 1027.00 789.00 L 1028.00 787.00 L 1029.00 785.00 L 1030.00 783.00 L 1031.00 781.00 L 1033.00 779.00 L 1033.00 777.00 L 1034.00 775.00 L 1036.00 773.00 L 1037.00 771.00 L 1038.00 769.00 L 1038.00 767.00 L 1040.00 765.00 L 1041.00 763.00 L 1042.00 761.00 L 1043.00 759.00 L 1044.00 757.00 L 1045.00 755.00 L 1046.00 753.00 L 1047.00 751.00 L 1048.00 749.00 L 1049.00 747.00 L 1050.00 745.00 L 1052.00 743.00 L 1053.00 741.00 L 1054.00 739.00 L 1055.00 737.00 L 1056.00 735.00 L 1057.00 733.00 L 1058.00 731.00 L 1059.00 729.00 L 1060.00 727.00 L 1061.00 725.00 L 1062.00 723.00 L 1063.00 721.00 L 1065.00 719.00 L 1066.00 717.00 L 1067.00 715.00 L 1068.00 713.00 L 1069.00 711.00 L 1070.00 709.00 L 1071.00 707.00 L 1072.00 705.00 L 1073.00 703.00 L 1074.00 701.00 L 1075.00 699.00 L 1076.00 697.00 L 1077.00 695.00 L 1078.00 693.00 L 1079.00 691.00 L 1081.00 689.00 L 1081.00 687.00 L 1082.00 685.00 L 1084.00 683.00 L 1085.00 681.00 L 1086.00 679.00 L 1086.00 677.00 L 1088.00 675.00 L 1089.00 673.00 L 1090.00 671.00 L 1091.00 669.00 L 1092.00 667.00 L 1093.00 665.00 L 1094.00 663.00 L 1095.00 661.00 L 1096.00 659.00 L 1097.00 657.00 L 1098.00 655.00 L 1099.00 653.00 L 1101.00 651.00 L 1102.00 649.00 L 1103.00 647.00 L 1104.00 645.00 L 1105.00 643.00 L 1106.00 641.00 L 1107.00 639.00 L 1108.00 637.00 L 1109.00 635.00 L 1110.00 633.00 L 1111.00 631.00 L 1113.00 629.00 L 1113.00 627.00 L 1114.00 625.00 L 1115.00 623.00 L 1117.00 621.00 L 1118.00 619.00 L 1118.00 617.00 L 1120.00 615.00 L 1121.00 613.00 L 1122.00 611.00 L 1122.00 609.00 L 1124.00 607.00 L 1125.00 605.00 L 1126.00 603.00 L 1127.00 601.00 L 1128.00 599.00 L 1129.00 597.00 L 1130.00 595.00 L 1131.00 593.00 L 1133.00 591.00 L 1134.00 589.00 L 1134.00 587.00 L 1136.00 585.00 L 1137.00 583.00 L 1138.00 581.00 L 1139.00 579.00 L 1140.00 577.00 L 1141.00 575.00 L 1142.00 573.00 L 1143.00 571.00 L 1144.00 569.00 L 1145.00 567.00 L 1146.00 565.00 L 1147.00 563.00 L 1149.00 561.00 L 1149.00 559.00 L 1150.00 557.00 L 1152.00 555.00 L 1153.00 553.00 L 1154.00 551.00 L 1154.00 549.00 L 1156.00 547.00 L 1157.00 545.00 L 1158.00 543.00 L 1159.00 541.00 L 1160.00 539.00 L 1161.00 537.00 L 1162.00 535.00 L 1163.00 533.00 L 1164.00 531.00 L 1165.00 529.00 L 1166.00 527.00 L 1167.00 525.00 L 1169.00 523.00 L 1169.00 521.00 L 1170.00 519.00 L 1172.00 517.00 L 1173.00 515.00 L 1174.00 513.00 L 1175.00 511.00 L 1176.00 509.00 L 1177.00 507.00 L 1178.00 505.00 L 1179.00 503.00 L 1180.00 501.00 L 1181.00 499.00 L 1182.00 497.00 L 1183.00 495.00 L 1185.00 493.00 L 1186.00 491.00 L 1187.00 489.00 L 1188.00 487.00 L 1189.00 485.00 L 1190.00 483.00 L 1191.00 481.00 L 1192.00 479.00 L 1193.00 477.00 L 1194.00 475.00 L 1195.00 473.00 L 1197.00 471.00 L 1197.00 469.00 L 1198.00 467.00 L 1200.00 465.00 L 1201.00 463.00 L 1202.00 461.00 L 1203.00 459.00 L 1204.00 457.00 L 1205.00 455.00 L 1206.00 453.00 L 1207.00 451.00 L 1209.00 449.00 L 1209.00 447.00 L 1210.00 445.00 L 1212.00 443.00 L 1213.00 441.00 L 1214.00 439.00 L 1215.00 437.00 L 1216.00 435.00 L 1217.00 433.00 L 1218.00 431.00 L 1219.00 429.00 L 1220.00 427.00 L 1221.00 425.00 L 1222.00 423.00 L 1223.00 421.00 L 1225.00 419.00 L 1225.00 417.00 L 1226.00 415.00 L 1228.00 413.00 L 1229.00 411.00 L 1230.00 409.00 L 1230.00 407.00 L 1232.00 405.00 L 1233.00 403.00 L 1234.00 401.00 L 1235.00 399.00 L 1236.00 397.00 L 1237.00 395.00 L 1238.00 393.00 L 1239.00 391.00 L 1240.00 389.00 L 1241.00 387.00 L 1242.00 385.00 L 1243.00 383.00 L 1245.00 381.00 L 1245.00 379.00 L 1246.00 377.00 L 1248.00 375.00 L 1249.00 373.00 L 1250.00 371.00 L 1251.00 369.00 L 1252.00 367.00 L 1253.00 365.00 L 1254.00 363.00 L 1255.00 361.00 L 1256.00 359.00 L 1257.00 357.00 L 1258.00 355.00 L 1259.00 353.00 L 1261.00 351.00 L 1261.00 349.00 L 1262.00 347.00 L 1264.00 345.00 L 1265.00 343.00 L 1266.00 341.00 L 1267.00 339.00 L 1268.00 337.00 L 1269.00 335.00 L 1270.00 333.00 L 1271.00 331.00 L 1273.00 329.00 L 1273.00 327.00 L 1274.00 325.00 L 1276.00 323.00 L 1277.00 321.00 L 1278.00 319.00 L 1279.00 317.00 L 1280.00 315.00 L 1281.00 313.00 L 1282.00 311.00 L 1283.00 309.00 L 1284.00 307.00 L 1285.00 305.00 L 1286.00 303.00 L 1287.00 301.00 L 1289.00 299.00 L 1289.00 297.00 L 1290.00 295.00 L 1292.00 293.00 L 1293.00 291.00 L 1294.00 289.00 L 1295.00 287.00 L 1296.00 285.00 L 1297.00 283.00 L 1298.00 281.00 L 1299.00 279.00 L 1300.00 277.00 L 1301.00 275.00 L 1302.00 273.00 L 1304.00 271.00 L 1305.00 269.00 L 1306.00 267.00 L 1307.00 265.00 L 1308.00 263.00 L 1309.00 261.00 L 1310.00 259.00 L 1311.00 257.00 L 1313.00 255.00 L 1314.00 253.00 L 1314.00 251.00 L 1316.00 249.00 L 1317.00 247.00 L 1318.00 245.00 L 1319.00 243.00 L 1320.00 241.00 L 1321.00 239.00 L 1322.00 237.00 L 1323.00 235.00 L 1324.00 233.00 L 1325.00 231.00 L 1326.00 229.00 L 1327.00 227.00 L 1329.00 225.00 L 1329.00 223.00 L 1330.00 221.00 L 1332.00 219.00 L 1333.00 217.00 L 1334.00 215.00 L 1335.00 213.00 L 1336.00 211.00 L 1337.00 209.00 L 1338.00 207.00 L 1339.00 205.00 L 1341.00 203.00 L 1341.00 201.00 L 1342.00 199.00 L 1343.00 197.00 L 1345.00 195.00 L 1345.00 193.00 L 1346.00 191.00 L 1348.00 189.00 L 1349.00 187.00 L 1350.00 185.00 L 1351.00 183.00 L 1352.00 181.00 L 1353.00 179.00 L 1354.00 177.00 L 1355.00 175.00 L 1356.00 173.00 L 1357.00 171.00 L 1358.00 169.00 L 1360.00 167.00 L 1361.00 165.00 L 1362.00 163.00 L 1363.00 161.00 L 1364.00 159.00 L 1365.00 157.00 L 1366.00 155.00 L 1367.00 153.00 L 1368.00 151.00 L 1369.00 149.00 L 1370.00 147.00 L 1372.00 145.00 L 1373.00 143.00 L 1373.00 141.00 L 1374.00 139.00 L 1376.00 137.00 L 1377.00 135.00 L 1378.00 133.00 L 1379.00 131.00 L 1380.00 129.00 L 1381.00 127.00 L 1382.00 125.00 L 1383.00 123.00 L 1384.00 121.00 L 1385.00 119.00 L 1386.00 117.00 L 1388.00 115.00 L 1389.00 113.00 L 1390.00 111.00 L 1390.00 109.00 L 1392.00 107.00 L 1393.00 105.00 L 1394.00 103.00 L 1395.00 101.00 L 1396.00 99.00 L 1397.00 97.00 L 1398.00 95.00 L 1399.00 93.00 L 1401.00 91.00 L 1401.00 89.00 L 1403.00 87.00 L 1404.00 85.00 L 1405.00 83.00 L 1406.00 81.00 L 1407.00 79.00 L 1408.00 77.00 L 1409.00 75.00 L 1410.00 73.00 L 1411.00 71.00 L 1413.00 69.00 L 1413.00 67.00 L 1414.00 65.00 L 1416.00 63.00 L 1417.00 61.00 L 1418.00 59.00 L 1418.00 57.00 L 1420.00 55.00 L 1421.00 53.00 L 1422.00 51.00 L 1422.00 49.00 L 1423.00 47.00 L 1422.00 45.00 L 1420.00 44.00 L 1418.00 43.00 L 1416.00 41.00 L 1414.00 40.00 L 1412.00 39.00 L 1410.00 38.00 L 1408.00 36.00 L 1406.00 35.00 L 1404.00 34.00 L 1402.00 32.00 L 1400.00 32.00 Z" fill="#000000" fill-rule="evenodd"/>
  </g>
</svg>
